<?xml version="1.0" encoding="utf-8"?>
<!-- Generator: Adobe Illustrator 16.0.0, SVG Export Plug-In . SVG Version: 6.00 Build 0)  -->
<!DOCTYPE svg PUBLIC "-//W3C//DTD SVG 1.1//EN" "http://www.w3.org/Graphics/SVG/1.1/DTD/svg11.dtd">
<svg version="1.1" id="图层_1" xmlns="http://www.w3.org/2000/svg" xmlns:xlink="http://www.w3.org/1999/xlink" x="0px" y="0px"
	 width="280px" height="280px" viewBox="0 0 280 280" enable-background="new 0 0 280 280" xml:space="preserve">
<g>
	<path fill-rule="evenodd" clip-rule="evenodd" fill="#FFFFFF" d="M218.533,186.192c-13.598,19.576-44.393,33.24-80.22,33.24
		c-35.823,0-66.619-13.664-80.218-33.24c21.512,7.648,49.552,12.271,80.218,12.271C168.981,198.463,197.021,193.84,218.533,186.192"
		/>
	<path fill-rule="evenodd" clip-rule="evenodd" fill="#D8D8D8" d="M138.313,98.404c67.78,0,122.729,22.592,122.729,50.458
		c0,27.867-54.949,50.457-122.729,50.457c-67.778,0-122.725-22.59-122.725-50.457C15.588,120.996,70.535,98.404,138.313,98.404"/>
	<path fill-rule="evenodd" clip-rule="evenodd" fill="#FFFFFF" d="M137.882,99.334c63.045,0,114.151,21.012,114.151,46.931
		c0,25.921-51.105,46.933-114.151,46.933c-63.044,0-114.153-21.012-114.153-46.933C23.729,120.346,74.837,99.334,137.882,99.334"/>
	<path fill-rule="evenodd" clip-rule="evenodd" fill="#30A8FF" d="M138.313,66.97c33.784,0,73.571,25.865,73.841,73.954l-0.02,2.021
		c-2.531,15.856-34.611,28.398-73.821,28.398c-40.108,0-72.759-13.125-73.948-29.495l0.11-0.925
		C64.742,92.835,104.531,66.97,138.313,66.97"/>
	<path fill-rule="evenodd" clip-rule="evenodd" fill="#5AD0FF" d="M138.309,71.978c30.54,0,66.513,23.381,66.755,66.859l-0.02,1.824
		c-2.287,14.335-31.289,25.675-66.735,25.675c-36.262,0-65.779-11.863-66.853-26.666l0.099-0.833
		C71.796,95.359,107.767,71.978,138.309,71.978"/>
	<path fill-rule="evenodd" clip-rule="evenodd" fill="#CFF4FF" d="M139.476,71.992c0.402,0.008,0.805,0.021,1.209,0.037
		c-19.581,8.419-36.393,46.577-36.657,90.425c-11.758-2.891-21.174-7.227-26.807-12.406v-0.112
		C77.221,107.428,104.97,72.878,139.476,71.992"/>
</g>
</svg>
