<?xml version="1.0" encoding="utf-8"?>
<!-- Generator: Adobe Illustrator 16.0.0, SVG Export Plug-In . SVG Version: 6.00 Build 0)  -->
<!DOCTYPE svg PUBLIC "-//W3C//DTD SVG 1.1//EN" "http://www.w3.org/Graphics/SVG/1.1/DTD/svg11.dtd">
<svg version="1.1" id="图层_1" xmlns="http://www.w3.org/2000/svg" xmlns:xlink="http://www.w3.org/1999/xlink" x="0px" y="0px"
	 width="200px" height="200px" viewBox="0 0 200 200" enable-background="new 0 0 200 200" xml:space="preserve">
<g>
	<path fill="#D6D6D6" d="M142.235,194.842H61.417c-3.306,0-5.987-2.683-5.987-5.984c0-3.311,2.681-5.986,5.987-5.986h80.818
		c3.306,0,5.985,2.676,5.985,5.986C148.221,192.159,145.541,194.842,142.235,194.842z"/>
	<path fill="#D6D6D6" d="M198.75,138.173c0,11.462-9.29,20.752-20.748,20.752H21.942c-11.457,0-20.748-9.291-20.748-20.752V27.014
		c0-11.459,9.291-20.749,20.748-20.749h156.06c11.458,0,20.748,9.29,20.748,20.749V138.173L198.75,138.173z M189.69,25.147
		c0-5.009-4.06-9.069-9.069-9.069H19.323c-5.009,0-9.07,4.06-9.07,9.069v114.892c0,5.011,4.061,9.072,9.07,9.072h161.298
		c5.01,0,9.069-4.062,9.069-9.072V25.147z"/>
	<path fill="#D6D6D6" d="M193.12,125.996H7.538c-1.655,0-2.993-1.339-2.993-2.993s1.337-2.993,2.993-2.993H193.12
		c1.651,0,2.994,1.339,2.994,2.993S194.771,125.996,193.12,125.996z"/>
	<path fill="#D6D6D6" d="M193.12,39.192H7.538c-1.655,0-2.993-1.339-2.993-2.994c0-1.654,1.337-2.993,2.993-2.993H193.12
		c1.651,0,2.994,1.338,2.994,2.993C196.114,37.853,194.771,39.192,193.12,39.192z"/>
	<path fill="#7FD7FA" d="M57.088,78.526c-0.361,0-0.729-0.065-1.085-0.205c-1.542-0.599-2.303-2.336-1.702-3.876l0.812-2.085
		c0.601-1.54,2.339-2.303,3.877-1.701c1.54,0.599,2.299,2.336,1.7,3.876l-0.813,2.083C59.416,77.804,58.285,78.526,57.088,78.526z"
		/>
	<path fill="#7FD7FA" d="M45.675,107.838c-0.359,0-0.728-0.062-1.084-0.204c-1.54-0.599-2.304-2.335-1.701-3.875l8.488-21.801
		c0.599-1.538,2.33-2.31,3.873-1.701c1.541,0.598,2.304,2.335,1.705,3.875l-8.488,21.799
		C48.005,107.113,46.874,107.838,45.675,107.838z"/>
	<path fill="#7FD7FA" d="M33.544,87.482c-0.36,0-0.728-0.064-1.085-0.204c-1.541-0.6-2.303-2.333-1.704-3.873l12.412-31.886
		c0.601-1.54,2.333-2.309,3.875-1.704c1.541,0.599,2.304,2.333,1.705,3.873L36.336,85.573
		C35.875,86.757,34.743,87.482,33.544,87.482z"/>
	<path fill="#7FD7FA" d="M27.716,102.439c-0.361,0-0.729-0.063-1.085-0.205c-1.541-0.598-2.304-2.334-1.7-3.875l1.823-4.686
		c0.601-1.54,2.344-2.304,3.876-1.701c1.541,0.6,2.304,2.336,1.701,3.877l-1.824,4.684
		C30.044,101.717,28.913,102.439,27.716,102.439z"/>
</g>
</svg>
