<?xml version="1.0" encoding="utf-8"?>
<!-- Generator: Adobe Illustrator 16.0.0, SVG Export Plug-In . SVG Version: 6.00 Build 0)  -->
<!DOCTYPE svg PUBLIC "-//W3C//DTD SVG 1.1//EN" "http://www.w3.org/Graphics/SVG/1.1/DTD/svg11.dtd">
<svg version="1.1" id="图层_1" xmlns="http://www.w3.org/2000/svg" xmlns:xlink="http://www.w3.org/1999/xlink" x="0px" y="0px"
	 width="200px" height="200px" viewBox="0 0 200 200" enable-background="new 0 0 200 200" xml:space="preserve">
<path fill="#FF7474" d="M139.975,74.833c3.59-3.589,7.181-26.325-7.18-40.683c-1.195-1.196-4.785-3.589-5.982-4.786
	C105.276,17.399,107.67,3.041,107.67,3.041c-69.4,34.698-44.273,70.595-43.075,71.792H19.509c-10.969,0-11.966-0.044-11.966,11.964
	v95.722c0,12.678-1.261,11.965,11.966,11.965h160.764c11.75,0,11.966-0.634,11.966-11.965V86.796c0-9.944-1.497-11.964-9.346-11.964
	L139.975,74.833L139.975,74.833z"/>
<path fill="#FFFFFF" d="M102.617,11.676c0,0,1.63,12.095,19.099,22.844l4.029,4.032c10.752,13.437,5.377,33.593,2.689,36.281
	h-10.749v-2.688c0-10.75-5.377-20.156-6.72-16.126c-1.343,4.032-4.03,8.063-4.03,8.063c-9.406,9.406-8.063-22.844-8.063-22.844
	C78.716,54.677,81.404,70.801,82.748,74.833h-8.063C71.998,72.145,52.9,46.613,102.617,11.676z"/>
<rect x="17.432" y="85.052" fill="#FFFFFF" width="90.299" height="26.385"/>
<rect x="17.432" y="122.318" fill="#FFFFFF" width="32.935" height="26.324"/>
<rect x="17.431" y="157.453" fill="#FFFFFF" width="78.177" height="27.101"/>
<polygon fill="#FFFFFF" points="59.817,148.643 59.817,122.631 142.793,122.631 142.793,148.643 "/>
<rect x="106.071" y="157.453" fill="#FFFFFF" width="76.639" height="27.438"/>
<rect x="151.64" y="122.942" fill="#FFFFFF" width="30.188" height="25.699"/>
<rect x="118.289" y="85.485" fill="#FFFFFF" width="63.714" height="25.704"/>
</svg>
