<?xml version="1.0" encoding="utf-8"?>
<!-- Generator: Adobe Illustrator 16.0.0, SVG Export Plug-In . SVG Version: 6.00 Build 0)  -->
<!DOCTYPE svg PUBLIC "-//W3C//DTD SVG 1.1//EN" "http://www.w3.org/Graphics/SVG/1.1/DTD/svg11.dtd">
<svg version="1.1" id="图层_1" xmlns="http://www.w3.org/2000/svg" xmlns:xlink="http://www.w3.org/1999/xlink" x="0px" y="0px"
	 width="200px" height="200px" viewBox="0 0 200 200" enable-background="new 0 0 200 200" xml:space="preserve">
<path fill="#D6D6D6" d="M100.377,12.465c11.807,0,23.249,2.313,34.029,6.868c10.412,4.408,19.76,10.707,27.785,18.732
	c8.024,8.026,14.324,17.373,18.731,27.786c4.554,10.781,6.869,22.221,6.869,34.011v0.019c0,11.809-2.315,23.249-6.869,34.01
	c-4.407,10.413-10.707,19.762-18.731,27.786c-8.025,8.025-17.373,14.324-27.785,18.732c-10.78,4.555-22.223,6.866-34.029,6.866
	c-11.809,0-23.249-2.312-34.029-6.866c-10.413-4.408-19.762-10.707-27.786-18.732c-8.026-8.024-14.324-17.373-18.733-27.786
	c-4.554-10.779-6.867-22.221-6.867-34.01v-0.019c0-11.808,2.313-23.249,6.867-34.011c4.409-10.413,10.707-19.76,18.733-27.786
	c8.024-8.025,17.373-14.324,27.786-18.732C77.128,14.778,88.568,12.465,100.377,12.465 M100.377,3.077
	c-53.469,0-96.804,43.334-96.804,96.804V99.9c0,53.452,43.334,96.804,96.804,96.804c53.471,0,96.805-43.335,96.805-96.804v-0.02
	C197.182,46.411,153.848,3.077,100.377,3.077z"/>
<path fill="#7FD7FA" d="M103.488,44.63l-7.819-7.821v-0.197h-0.198l-2.695-2.694l-2.695,2.694h-0.328v0.329l-7.691,7.689v9.104
	l7.707-7.707l0.051,32.797c0,2.744-1.054,5.323-2.959,7.279c-1.987,2.037-4.748,3.122-7.591,3.122h-7.444
	c-1.626,0-2.957,1.332-2.957,2.957c0,1.628,1.331,2.958,2.957,2.958h7.427c4.338,0,8.527-1.643,11.618-4.682
	c3.153-3.105,4.88-7.247,4.88-11.667l-0.049-32.879l7.804,7.821V44.63H103.488z M163.516,89.16v-0.049h-0.051l-7.674-7.674h-9.102
	l7.688,7.69l-33.026,0.065h-0.033c-2.776,0-5.392-1.085-7.361-3.04c-1.973-1.972-3.057-4.584-3.057-7.378V71.15
	c0-1.627-1.33-2.958-2.957-2.958s-2.959,1.331-2.959,2.958v7.624c0,4.372,1.709,8.479,4.799,11.568
	c3.089,3.073,7.181,4.766,11.535,4.766h0.049l33.142-0.066l-7.819,7.821h9.103l10.713-10.714L163.516,89.16z M121.499,104.327
	c-4.403,0-8.544,1.725-11.667,4.847c-3.104,3.122-4.814,7.264-4.799,11.666l0.066,33.026l-7.822-7.819v9.104l10.714,10.713
	l3.023-3.022h0.016v-0.032l7.675-7.675v-9.104l-7.69,7.69l-0.064-32.913c0-2.793,1.051-5.404,3.007-7.394
	c2.021-2.07,4.831-3.172,7.722-3.172h7.348c1.625,0,2.957-1.33,2.957-2.956c0-1.627-1.332-2.958-2.957-2.958H121.499z
	 M91.118,109.336c-3.14-3.186-7.329-4.945-11.799-4.945h-0.048l-33.109,0.066l7.903-7.886H44.96l-10.712,10.714l3.071,3.07v0.033
	h0.033l7.607,7.609h9.104l-7.658-7.626l32.864-0.065h0.033c2.825,0,5.487,1.103,7.491,3.105c2.022,2.005,3.122,4.684,3.122,7.525
	v7.395c0,1.626,1.331,2.958,2.957,2.958c1.628,0,2.959-1.332,2.959-2.958v-7.214C95.851,116.716,94.189,112.477,91.118,109.336z"/>
</svg>
