<?xml version="1.0" encoding="utf-8"?>
<!-- Generator: Adobe Illustrator 16.0.0, SVG Export Plug-In . SVG Version: 6.00 Build 0)  -->
<!DOCTYPE svg PUBLIC "-//W3C//DTD SVG 1.1//EN" "http://www.w3.org/Graphics/SVG/1.1/DTD/svg11.dtd">
<svg version="1.1" id="图层_1" xmlns="http://www.w3.org/2000/svg" xmlns:xlink="http://www.w3.org/1999/xlink" x="0px" y="0px"
	 width="200px" height="200px" viewBox="0 0 200 200" enable-background="new 0 0 200 200" xml:space="preserve">
<g>
	<path fill="#D6D6D6" d="M15.423,66.412h169.396V17.814H15.423V66.412z M8.5,128.875c-1.389-1.389-1.63-4.612-1.63-6V74.519
		c0-2.776,0-2.505,1.389-3.894C6.87,69.237,6.87,66.637,6.87,65.25V19.814c0-9.689-0.12-10.553,8.553-10.553h169.396
		c8.849,0,8.553,1.367,8.553,10.553v46.597c0,2.777-0.537,3.172-1.537,3.756c1.389,1.389,1.537,1.917,1.537,4.351v48.598
		c0,2.634,0.33,3.835-1.389,5.554c1.549,1.549,1.389,3.08,1.389,3.941v48.598c0,7.791,0.379,8.553-8.553,8.553H15.423
		c-7.173,0-8.553-0.762-8.553-8.553v-48.598C6.87,131.225,7.111,130.264,8.5,128.875z M15.423,181.209h169.396v-48.598H15.423
		V181.209z M15.423,124.505h169.396V74.519H15.423V124.505z"/>
	<path fill="#FF7474" d="M32.084,44.195c4.165,0,6.942-2.777,6.942-6.942c0-4.166-4.165-6.942-6.942-6.942
		c-4.165,0-6.942,2.776-6.942,6.942C25.142,41.418,27.919,44.195,32.084,44.195z M59.854,44.195c4.166,0,6.943-2.777,6.943-6.942
		c0-4.166-2.777-6.942-6.943-6.942s-6.941,2.776-6.941,6.942C52.912,41.418,55.688,44.195,59.854,44.195z"/>
	<path fill="#FF7474" d="M25.142,93.958c0,3.834,3.107,6.942,6.942,6.942c3.834,0,6.942-3.107,6.942-6.942
		c0-3.833-3.107-6.942-6.942-6.942C28.25,87.015,25.142,90.124,25.142,93.958L25.142,93.958z"/>
	<path fill="#FFE079" d="M52.912,93.958c-0.002,3.834,3.104,6.944,6.939,6.946c3.834,0.002,6.943-3.106,6.945-6.939
		c0-0.001,0-0.004,0-0.006c0.001-3.833-3.105-6.943-6.94-6.945c-3.833-0.001-6.943,3.105-6.944,6.939
		C52.912,93.954,52.912,93.956,52.912,93.958z"/>
	<path fill="#50D12C" d="M25.142,150.663c0,3.834,3.107,6.942,6.942,6.942c3.834,0,6.942-3.108,6.942-6.942
		s-3.107-6.943-6.942-6.943C28.25,143.72,25.142,146.829,25.142,150.663z"/>
	<path fill="#50D12C" d="M52.912,150.663c-0.002,3.834,3.104,6.942,6.939,6.944c3.834,0.002,6.943-3.104,6.945-6.938
		c0-0.002,0-0.004,0-0.006c0.001-3.834-3.105-6.944-6.94-6.946c-3.833-0.002-6.943,3.106-6.944,6.939
		C52.912,150.658,52.912,150.661,52.912,150.663z"/>
	<path fill="#7FD7FA" d="M162.602,158.993h-55.539c-4.164,0-6.941-2.776-6.941-6.942c0-4.165,2.777-6.941,6.941-6.941h55.539
		c4.166,0,6.942,2.776,6.942,6.941C169.544,156.217,166.768,158.993,162.602,158.993z M162.602,99.512h-55.539
		c-4.164,0-6.941-2.777-6.941-6.942c0-4.165,2.777-6.941,6.941-6.941h55.539c4.166,0,6.942,2.776,6.942,6.941
		C169.544,96.735,166.768,99.512,162.602,99.512z M162.602,44.195h-55.539c-4.164,0-6.941-2.777-6.941-6.942
		c0-4.166,2.777-6.942,6.941-6.942h55.539c4.166,0,6.942,2.776,6.942,6.942C169.544,41.418,166.768,44.195,162.602,44.195z"/>
</g>
</svg>
