<?xml version="1.0" encoding="utf-8"?>
<!-- Generator: Adobe Illustrator 16.0.0, SVG Export Plug-In . SVG Version: 6.00 Build 0)  -->
<!DOCTYPE svg PUBLIC "-//W3C//DTD SVG 1.1//EN" "http://www.w3.org/Graphics/SVG/1.1/DTD/svg11.dtd">
<svg version="1.1" id="图层_1" xmlns="http://www.w3.org/2000/svg" xmlns:xlink="http://www.w3.org/1999/xlink" x="0px" y="0px"
	 width="200px" height="200px" viewBox="0 0 200 200" enable-background="new 0 0 200 200" xml:space="preserve">
<path fill="#D6D6D6" d="M99.738,12.354c11.807,0,23.249,2.313,34.029,6.868c10.412,4.408,19.76,10.707,27.785,18.732
	c8.024,8.025,14.324,17.373,18.731,27.786c4.554,10.78,6.869,22.221,6.869,34.011v0.019c0,11.809-2.315,23.249-6.869,34.01
	c-4.407,10.413-10.707,19.762-18.731,27.786c-8.025,8.025-17.373,14.324-27.785,18.732c-10.78,4.555-22.223,6.866-34.029,6.866
	c-11.81,0-23.249-2.312-34.029-6.866c-10.413-4.408-19.762-10.707-27.786-18.732c-8.025-8.024-14.324-17.373-18.732-27.786
	c-4.555-10.779-6.867-22.221-6.867-34.01v-0.019c0-11.808,2.312-23.249,6.867-34.011c4.408-10.413,10.707-19.761,18.732-27.786
	c8.024-8.025,17.373-14.324,27.786-18.732C76.489,14.668,87.929,12.354,99.738,12.354 M99.738,2.967
	c-53.469,0-96.804,43.334-96.804,96.804v0.02c0,53.451,43.334,96.804,96.804,96.804c53.471,0,96.805-43.335,96.805-96.804V99.77
	C196.543,46.301,153.209,2.967,99.738,2.967z"/>
<path fill="#7FD7FA" d="M133.12,128.87l7.937,7.919h-15.154c-1.787,0-3.425-0.986-4.276-2.557l-18.412-34.435l18.345-34.284
	c0.886-1.655,2.607-2.69,4.479-2.69l14.986-0.033l-7.903,7.887h9.257l10.893-10.895l-10.893-10.895h-9.257l7.888,7.888
	l-14.988,0.033c-4.092,0-7.835,2.256-9.773,5.864L99.789,93.416L83.266,62.522c-1.884-3.537-5.566-5.749-9.576-5.747H58.454
	l7.886-7.888h-9.256L46.189,59.782l10.895,10.895h9.256l-7.886-7.887h15.235c1.79,0,3.428,0.984,4.277,2.556l18.414,34.436
	l-18.33,34.285c-0.886,1.652-2.605,2.689-4.477,2.689H58.486l7.887-7.886h-9.256l-10.895,10.893l10.895,10.894h9.256l-7.887-7.885
	h15.088c4.11,0,7.854-2.256,9.791-5.866l16.439-30.726l16.523,30.894c1.884,3.538,5.565,5.749,9.574,5.747h15.088l-7.853,7.854
	h9.255l10.895-10.895l-10.895-10.894h-9.272V128.87z"/>
</svg>
