<?xml version="1.0" encoding="utf-8"?>
<!-- Generator: Adobe Illustrator 16.0.0, SVG Export Plug-In . SVG Version: 6.00 Build 0)  -->
<!DOCTYPE svg PUBLIC "-//W3C//DTD SVG 1.1//EN" "http://www.w3.org/Graphics/SVG/1.1/DTD/svg11.dtd">
<svg version="1.1" id="图层_1" xmlns="http://www.w3.org/2000/svg" xmlns:xlink="http://www.w3.org/1999/xlink" x="0px" y="0px"
	 width="160px" height="160px" viewBox="0 0 160 160" enable-background="new 0 0 160 160" xml:space="preserve">
<g display="none">
	<polygon display="inline" fill="#4C4C4F" points="67.793,157.478 27.783,134.378 27.783,38.372 67.793,61.47 	"/>
	<polygon display="inline" fill="#303133" points="132.396,119.808 67.767,157.48 67.767,61.47 132.396,23.802 	"/>
	<polygon display="inline" fill="#3A3A3A" points="132.42,23.81 67.789,61.479 28.024,38.523 93.864,2.062 	"/>
	<g display="inline">
		<path fill="#1D1D1E" d="M31.867,131.805c-0.003-0.406-0.294-0.895-0.644-1.09c-0.353-0.199-0.633-0.035-0.628,0.374
			c0.003,0.407,0.293,0.896,0.643,1.091C31.592,132.379,31.874,132.215,31.867,131.805"/>
		<path fill="#1D1D1E" d="M34.594,133.343c-0.003-0.41-0.292-0.897-0.643-1.097c-0.353-0.198-0.631-0.031-0.63,0.378
			c0.006,0.408,0.292,0.896,0.649,1.093C34.32,133.917,34.602,133.746,34.594,133.343"/>
		<path fill="#1D1D1E" d="M37.327,134.874c-0.005-0.402-0.296-0.894-0.645-1.093c-0.353-0.195-0.631-0.026-0.631,0.377
			c0.005,0.406,0.294,0.896,0.649,1.095C37.048,135.453,37.33,135.283,37.327,134.874"/>
		<path fill="#1D1D1E" d="M40.056,136.412c-0.005-0.408-0.294-0.896-0.647-1.094c-0.35-0.197-0.63-0.032-0.627,0.377
			c0.003,0.408,0.293,0.894,0.646,1.091C39.781,136.985,40.061,136.818,40.056,136.412"/>
		<path fill="#1D1D1E" d="M42.782,137.949c-0.003-0.409-0.291-0.897-0.643-1.095c-0.352-0.2-0.633-0.03-0.63,0.374
			c0.005,0.409,0.293,0.897,0.644,1.095C42.507,138.519,42.789,138.354,42.782,137.949"/>
		<path fill="#1D1D1E" d="M45.514,139.482c-0.003-0.405-0.292-0.893-0.646-1.093c-0.352-0.199-0.631-0.032-0.63,0.377
			c0.005,0.405,0.294,0.894,0.649,1.093C45.238,140.057,45.518,139.887,45.514,139.482"/>
		<path fill="#1D1D1E" d="M48.246,141.019c-0.008-0.407-0.299-0.896-0.65-1.096c-0.352-0.195-0.632-0.03-0.624,0.384
			c0,0.4,0.29,0.889,0.644,1.086C47.965,141.593,48.248,141.426,48.246,141.019"/>
		<path fill="#1D1D1E" d="M50.971,142.551c-0.003-0.402-0.292-0.891-0.643-1.09c-0.356-0.2-0.633-0.031-0.631,0.374
			c0.006,0.405,0.297,0.896,0.647,1.096C50.694,143.128,50.976,142.963,50.971,142.551"/>
		<path fill="#1D1D1E" d="M53.699,144.087c-0.003-0.403-0.292-0.894-0.643-1.091c-0.353-0.197-0.631-0.033-0.63,0.375
			c0.008,0.406,0.294,0.893,0.645,1.097C53.422,144.665,53.707,144.496,53.699,144.087"/>
		<path fill="#1D1D1E" d="M56.432,145.625c-0.005-0.411-0.294-0.896-0.649-1.096c-0.349-0.197-0.63-0.028-0.628,0.377
			c0.005,0.409,0.294,0.896,0.647,1.095C56.153,146.199,56.435,146.029,56.432,145.625"/>
		<path fill="#1D1D1E" d="M59.155,147.16c0-0.41-0.288-0.896-0.641-1.094c-0.35-0.196-0.63-0.03-0.628,0.377
			c0.006,0.41,0.293,0.896,0.645,1.093C58.883,147.733,59.16,147.562,59.155,147.16"/>
		<path fill="#1D1D1E" d="M61.889,148.697c-0.008-0.411-0.296-0.897-0.646-1.095c-0.353-0.199-0.635-0.032-0.626,0.374
			c0.003,0.408,0.292,0.896,0.643,1.093C61.611,149.268,61.892,149.101,61.889,148.697"/>
		<path fill="#1D1D1E" d="M64.248,150.008c-0.003-0.409-0.293-0.897-0.64-1.095c-0.353-0.197-0.638-0.03-0.631,0.376
			c0.005,0.408,0.292,0.896,0.647,1.094C63.973,150.58,64.256,150.412,64.248,150.008"/>
		<path fill="#1D1D1E" d="M31.837,129.073c-0.001-0.407-0.289-0.894-0.644-1.093c-0.352-0.197-0.631-0.028-0.631,0.377
			c0.008,0.407,0.294,0.894,0.647,1.095C31.562,129.65,31.842,129.479,31.837,129.073"/>
		<path fill="#1D1D1E" d="M34.565,130.609c0-0.406-0.288-0.894-0.644-1.096c-0.352-0.193-0.631-0.028-0.628,0.382
			c0.008,0.402,0.296,0.891,0.645,1.093C34.29,131.183,34.57,131.016,34.565,130.609"/>
		<path fill="#1D1D1E" d="M37.296,132.144c-0.006-0.407-0.293-0.892-0.649-1.095c-0.35-0.195-0.632-0.025-0.624,0.379
			c0.003,0.41,0.292,0.896,0.643,1.091C37.02,132.723,37.296,132.552,37.296,132.144"/>
		<path fill="#1D1D1E" d="M40.027,133.68c-0.006-0.405-0.294-0.893-0.646-1.091c-0.354-0.199-0.634-0.032-0.631,0.377
			c0.005,0.403,0.296,0.892,0.646,1.091C39.746,134.254,40.027,134.085,40.027,133.68"/>
		<path fill="#1D1D1E" d="M42.755,135.215c-0.005-0.405-0.296-0.895-0.646-1.09c-0.352-0.2-0.633-0.033-0.626,0.376
			c0.003,0.403,0.292,0.892,0.641,1.096C42.476,135.791,42.758,135.623,42.755,135.215"/>
		<path fill="#1D1D1E" d="M45.481,136.751c-0.004-0.407-0.294-0.896-0.643-1.093c-0.353-0.198-0.633-0.03-0.631,0.377
			c0.006,0.406,0.297,0.897,0.647,1.093C45.207,137.325,45.49,137.157,45.481,136.751"/>
		<path fill="#1D1D1E" d="M48.211,138.284c-0.003-0.405-0.292-0.896-0.641-1.089c-0.355-0.199-0.633-0.03-0.63,0.377
			c0.001,0.407,0.29,0.893,0.644,1.091C47.936,138.862,48.216,138.691,48.211,138.284"/>
		<path fill="#1D1D1E" d="M50.942,139.823c-0.005-0.406-0.296-0.895-0.645-1.097c-0.356-0.193-0.636-0.028-0.631,0.376
			c0.005,0.41,0.294,0.898,0.651,1.098C50.664,140.397,50.944,140.23,50.942,139.823"/>
		<path fill="#1D1D1E" d="M53.672,141.354c-0.006-0.402-0.294-0.891-0.644-1.091c-0.355-0.197-0.632-0.029-0.627,0.375
			c0,0.407,0.29,0.897,0.64,1.093C53.396,141.934,53.672,141.765,53.672,141.354"/>
		<path fill="#1D1D1E" d="M56.398,142.893c-0.003-0.407-0.29-0.891-0.645-1.094c-0.35-0.194-0.631-0.026-0.628,0.378
			c0.006,0.404,0.296,0.893,0.645,1.096C56.123,143.47,56.403,143.297,56.398,142.893"/>
		<path fill="#1D1D1E" d="M59.126,144.428c0-0.409-0.29-0.897-0.643-1.095c-0.352-0.198-0.633-0.028-0.63,0.379
			c0.003,0.407,0.296,0.897,0.647,1.091C58.851,145.002,59.132,144.835,59.126,144.428"/>
		<path fill="#1D1D1E" d="M61.859,145.964c-0.005-0.407-0.296-0.898-0.647-1.091c-0.35-0.199-0.633-0.03-0.625,0.374
			c0.001,0.405,0.288,0.894,0.643,1.091C61.583,146.54,61.86,146.37,61.859,145.964"/>
		<path fill="#1D1D1E" d="M64.588,147.499c-0.008-0.408-0.296-0.896-0.644-1.093c-0.355-0.2-0.633-0.028-0.632,0.379
			c0.006,0.402,0.294,0.894,0.646,1.088C64.312,148.073,64.592,147.905,64.588,147.499"/>
		<path fill="#1D1D1E" d="M31.807,126.346c-0.006-0.411-0.294-0.896-0.647-1.097c-0.352-0.198-0.63-0.028-0.625,0.376
			c0.003,0.407,0.292,0.894,0.646,1.099C31.528,126.92,31.812,126.751,31.807,126.346"/>
		<path fill="#1D1D1E" d="M34.535,127.879c-0.001-0.407-0.289-0.896-0.647-1.093c-0.347-0.199-0.628-0.032-0.625,0.377
			c0.002,0.404,0.292,0.893,0.646,1.093C34.261,128.453,34.54,128.284,34.535,127.879"/>
		<path fill="#1D1D1E" d="M37.265,129.417c-0.005-0.412-0.293-0.898-0.646-1.096c-0.35-0.197-0.631-0.029-0.624,0.377
			c-0.003,0.405,0.288,0.896,0.641,1.094C36.989,129.991,37.272,129.817,37.265,129.417"/>
		<path fill="#1D1D1E" d="M39.994,130.95c0-0.407-0.292-0.898-0.646-1.093c-0.35-0.199-0.633-0.032-0.626,0.377
			c0.004,0.41,0.292,0.893,0.646,1.09C39.716,131.524,39.997,131.357,39.994,130.95"/>
		<path fill="#1D1D1E" d="M42.724,132.483c-0.003-0.402-0.294-0.894-0.645-1.091c-0.353-0.197-0.633-0.028-0.631,0.377
			c0.005,0.404,0.296,0.897,0.647,1.093C42.447,133.06,42.727,132.893,42.724,132.483"/>
		<path fill="#1D1D1E" d="M45.453,134.019c-0.003-0.405-0.293-0.893-0.649-1.091c-0.35-0.199-0.627-0.03-0.628,0.377
			c0.006,0.408,0.294,0.896,0.647,1.093C45.178,134.596,45.458,134.426,45.453,134.019"/>
		<path fill="#1D1D1E" d="M48.181,135.557c0-0.405-0.29-0.896-0.643-1.093c-0.353-0.203-0.634-0.03-0.63,0.374
			c0.003,0.408,0.293,0.896,0.645,1.094C47.907,136.131,48.186,135.962,48.181,135.557"/>
		<path fill="#1D1D1E" d="M50.912,137.094c-0.006-0.412-0.292-0.899-0.649-1.094c-0.35-0.198-0.631-0.034-0.624,0.376
			c0.001,0.405,0.29,0.893,0.641,1.093C50.632,137.668,50.914,137.5,50.912,137.094"/>
		<path fill="#1D1D1E" d="M53.64,138.628c-0.005-0.405-0.294-0.894-0.645-1.098c-0.353-0.195-0.634-0.026-0.63,0.379
			c0.003,0.407,0.294,0.894,0.649,1.095C53.362,139.199,53.64,139.032,53.64,138.628"/>
		<path fill="#1D1D1E" d="M56.371,140.161c-0.008-0.408-0.296-0.894-0.647-1.091c-0.353-0.199-0.631-0.03-0.625,0.377
			c0.001,0.402,0.291,0.891,0.64,1.095C56.093,140.739,56.375,140.568,56.371,140.161"/>
		<path fill="#1D1D1E" d="M59.098,141.7c0-0.407-0.291-0.899-0.646-1.097c-0.35-0.197-0.631-0.03-0.626,0.379
			c0.008,0.407,0.294,0.891,0.643,1.093C58.821,142.271,59.104,142.105,59.098,141.7"/>
		<path fill="#1D1D1E" d="M61.827,143.234c-0.002-0.412-0.291-0.896-0.641-1.093c-0.356-0.2-0.638-0.033-0.636,0.374
			c0.008,0.409,0.297,0.897,0.647,1.095C61.552,143.808,61.83,143.637,61.827,143.234"/>
		<path fill="#1D1D1E" d="M64.557,144.765c-0.005-0.402-0.296-0.891-0.645-1.093c-0.353-0.195-0.634-0.025-0.63,0.377
			c0.003,0.411,0.293,0.897,0.645,1.095C64.28,145.346,64.562,145.176,64.557,144.765"/>
		<path fill="#1D1D1E" d="M31.777,123.614c-0.002-0.405-0.294-0.896-0.645-1.093c-0.354-0.199-0.634-0.037-0.628,0.374
			c0.003,0.405,0.292,0.894,0.644,1.098C31.499,124.186,31.778,124.02,31.777,123.614"/>
		<path fill="#1D1D1E" d="M34.506,125.146c-0.005-0.406-0.293-0.893-0.647-1.092c-0.352-0.198-0.631-0.03-0.628,0.377
			c0.006,0.406,0.297,0.895,0.646,1.093C34.231,125.724,34.513,125.557,34.506,125.146"/>
		<path fill="#1D1D1E" d="M37.231,126.683c0.001-0.407-0.285-0.893-0.641-1.09c-0.352-0.2-0.631-0.033-0.63,0.377
			c0.005,0.406,0.293,0.895,0.645,1.093C36.959,127.259,37.237,127.088,37.231,126.683"/>
		<path fill="#1D1D1E" d="M39.964,128.219c-0.002-0.408-0.291-0.896-0.643-1.093c-0.355-0.198-0.633-0.03-0.632,0.376
			c0.005,0.408,0.293,0.896,0.646,1.094C39.688,128.795,39.97,128.625,39.964,128.219"/>
		<path fill="#1D1D1E" d="M42.695,129.753c-0.008-0.404-0.296-0.895-0.647-1.092c-0.354-0.197-0.633-0.03-0.628,0.377
			c0.006,0.404,0.296,0.895,0.646,1.095C42.417,130.331,42.696,130.163,42.695,129.753"/>
		<path fill="#1D1D1E" d="M45.424,131.287c-0.008-0.402-0.297-0.892-0.647-1.093c-0.35-0.195-0.631-0.028-0.631,0.377
			c0.006,0.407,0.296,0.896,0.649,1.097C45.146,131.866,45.424,131.694,45.424,131.287"/>
		<path fill="#1D1D1E" d="M48.154,132.825c-0.006-0.407-0.296-0.896-0.649-1.093c-0.348-0.2-0.63-0.03-0.63,0.376
			c0.008,0.407,0.297,0.894,0.647,1.094C47.874,133.398,48.155,133.229,48.154,132.825"/>
		<path fill="#1D1D1E" d="M50.879,134.362c0-0.409-0.288-0.896-0.643-1.096c-0.351-0.197-0.633-0.032-0.63,0.375
			c0.005,0.407,0.296,0.897,0.647,1.096C50.604,134.934,50.885,134.767,50.879,134.362"/>
		<path fill="#1D1D1E" d="M53.608,135.896c-0.005-0.405-0.296-0.894-0.643-1.096c-0.354-0.194-0.635-0.027-0.63,0.377
			c0.003,0.41,0.292,0.898,0.647,1.098C53.334,136.475,53.613,136.305,53.608,135.896"/>
		<path fill="#1D1D1E" d="M56.336,137.431c-0.001-0.406-0.291-0.893-0.641-1.095c-0.354-0.195-0.635-0.025-0.632,0.379
			c0.005,0.405,0.294,0.896,0.647,1.09C56.062,138.006,56.343,137.838,56.336,137.431"/>
		<path fill="#1D1D1E" d="M59.067,138.966c-0.003-0.407-0.294-0.896-0.645-1.09c-0.353-0.2-0.631-0.033-0.628,0.375
			c0.004,0.404,0.292,0.893,0.644,1.093C58.792,139.545,59.074,139.373,59.067,138.966"/>
		<path fill="#1D1D1E" d="M61.797,140.5c-0.006-0.405-0.293-0.892-0.647-1.091c-0.348-0.195-0.63-0.032-0.625,0.375
			c0.001,0.406,0.292,0.897,0.644,1.097C61.523,141.074,61.802,140.909,61.797,140.5"/>
		<path fill="#1D1D1E" d="M64.525,142.038c0-0.407-0.29-0.896-0.645-1.093c-0.354-0.197-0.631-0.026-0.628,0.376
			c0.001,0.407,0.292,0.896,0.646,1.09C64.25,142.614,64.528,142.442,64.525,142.038"/>
	</g>
	<linearGradient id="SVGID_1_" gradientUnits="userSpaceOnUse" x1="58.9258" y1="72.4258" x2="63.0742" y2="72.4258">
		<stop  offset="0" style="stop-color:#94DCFF"/>
		<stop  offset="1" style="stop-color:#158CFF"/>
	</linearGradient>
	<path display="inline" fill="url(#SVGID_1_)" d="M63.074,73.624c0,1.314-0.927,1.844-2.073,1.18
		c-1.142-0.657-2.076-2.26-2.076-3.577c0-1.312,0.934-1.84,2.076-1.179C62.147,70.708,63.074,72.31,63.074,73.624"/>
	<linearGradient id="SVGID_2_" gradientUnits="userSpaceOnUse" x1="58.6616" y1="81.0107" x2="62.7212" y2="81.0107">
		<stop  offset="0" style="stop-color:#FF8D7F"/>
		<stop  offset="1" style="stop-color:#FF3F75"/>
	</linearGradient>
	<path display="inline" fill="url(#SVGID_2_)" d="M62.721,82.182c0,1.285-0.909,1.804-2.028,1.156
		c-1.118-0.642-2.031-2.211-2.031-3.503c0-1.28,0.913-1.799,2.031-1.151C61.812,79.328,62.721,80.897,62.721,82.182"/>
	<polygon display="inline" fill="#2E2E33" points="55.6,71.125 33.515,57.879 33.359,53.585 55.442,66.83 	"/>
	<polygon display="inline" fill="#2E2E33" points="55.862,80.996 33.778,67.751 33.619,63.456 55.705,76.702 	"/>
	<linearGradient id="SVGID_3_" gradientUnits="userSpaceOnUse" x1="54.4976" y1="101.3271" x2="40.4725" y2="115.3522">
		<stop  offset="0" style="stop-color:#00D4D1"/>
		<stop  offset="1" style="stop-color:#54B0FF"/>
	</linearGradient>
	<polygon display="inline" fill="url(#SVGID_3_)" points="46,93.938 49,95.829 49,122.708 46,120.88 	"/>
</g>
<g>
	<g>
		<path fill="#838486" d="M21.857,122.073l21.132-11.187l57.026,30.136v1.578L77.446,156.83c-0.703,0.441-1.596,0.451-2.309,0.021
			l-52.843-31.76C21.567,124.654,21.482,122.774,21.857,122.073"/>
		<path fill="#D6D8DF" stroke="#D6D8DF" stroke-width="0.5" stroke-linejoin="bevel" stroke-miterlimit="10" d="M22.298,121.588
			L43.875,108.9l56.14,32.122L77.446,155.25c-0.703,0.443-1.595,0.45-2.307,0.025l-52.846-31.761
			C21.567,123.076,21.569,122.022,22.298,121.588"/>
		<path fill="#FFFFFF" d="M87.425,144.501l1.848-1.051c0.211-0.117,0.234-0.302,0.055-0.406l-2.135-1.253
			c-0.181-0.108-0.498-0.096-0.707,0.021l-1.85,1.048c-0.21,0.12-0.233,0.301-0.054,0.409l2.137,1.254
			C86.898,144.628,87.215,144.619,87.425,144.501"/>
		<path fill="#FFFFFF" d="M84.055,142.521l1.849-1.047c0.212-0.12,0.235-0.305,0.054-0.41l-2.135-1.256
			c-0.18-0.104-0.497-0.093-0.706,0.024l-1.851,1.047c-0.208,0.122-0.233,0.302-0.052,0.41l2.135,1.254
			C83.528,142.651,83.846,142.638,84.055,142.521"/>
		<path fill="#FFFFFF" d="M90.715,142.635l0.888-0.504c0.212-0.121,0.236-0.305,0.055-0.413l-2.178-1.279
			c-0.183-0.107-0.503-0.095-0.715,0.025l-0.889,0.502c-0.212,0.12-0.238,0.308-0.056,0.412L90,142.66
			C90.182,142.766,90.502,142.756,90.715,142.635"/>
		<path fill="#FFFFFF" d="M87.398,140.687l0.891-0.505c0.213-0.117,0.236-0.302,0.054-0.409l-2.177-1.282
			c-0.183-0.108-0.502-0.095-0.715,0.025l-0.888,0.505c-0.215,0.12-0.236,0.304-0.057,0.413l2.18,1.278
			C86.866,140.816,87.188,140.807,87.398,140.687"/>
		<path fill="#FFFFFF" d="M84.087,138.74l0.889-0.505c0.211-0.12,0.236-0.304,0.054-0.411l-2.179-1.279
			c-0.182-0.107-0.502-0.099-0.714,0.021l-0.889,0.505c-0.212,0.12-0.236,0.305-0.054,0.413l2.177,1.282
			C83.554,138.871,83.873,138.857,84.087,138.74"/>
		<path fill="#FFFFFF" d="M80.772,136.793l0.889-0.505c0.211-0.12,0.234-0.305,0.054-0.413l-2.177-1.279
			c-0.182-0.107-0.501-0.095-0.714,0.023l-0.889,0.507c-0.212,0.121-0.238,0.302-0.056,0.409l2.179,1.282
			C80.24,136.922,80.56,136.913,80.772,136.793"/>
		<path fill="#FFFFFF" d="M77.459,134.844l0.889-0.505c0.211-0.12,0.235-0.305,0.054-0.413l-2.179-1.277
			c-0.182-0.108-0.501-0.096-0.712,0.024l-0.89,0.505c-0.213,0.12-0.237,0.305-0.054,0.409l2.177,1.283
			C76.928,134.975,77.245,134.964,77.459,134.844"/>
		<path fill="#FFFFFF" d="M74.144,132.898l0.891-0.508c0.209-0.118,0.235-0.302,0.052-0.409l-2.178-1.279
			c-0.183-0.107-0.502-0.099-0.713,0.022l-0.889,0.504c-0.212,0.121-0.236,0.305-0.054,0.413l2.179,1.279
			C73.613,133.028,73.933,133.02,74.144,132.898"/>
		<path fill="#FFFFFF" d="M70.83,130.95l0.89-0.505c0.211-0.12,0.237-0.305,0.054-0.413l-2.177-1.278
			c-0.182-0.107-0.503-0.095-0.716,0.025l-0.888,0.502c-0.213,0.12-0.238,0.305-0.054,0.412l2.177,1.281
			C70.3,131.08,70.619,131.07,70.83,130.95"/>
		<path fill="#FFFFFF" d="M67.517,129.001l0.889-0.504c0.212-0.121,0.236-0.305,0.055-0.413l-2.179-1.279
			c-0.182-0.104-0.501-0.095-0.712,0.026l-0.891,0.504c-0.212,0.118-0.236,0.305-0.056,0.409l2.179,1.282
			C66.985,129.135,67.305,129.122,67.517,129.001"/>
		<path fill="#FFFFFF" d="M64.204,127.053l0.888-0.502c0.212-0.12,0.236-0.305,0.054-0.412l-2.177-1.278
			c-0.183-0.108-0.504-0.096-0.715,0.021l-0.889,0.505c-0.211,0.12-0.236,0.305-0.054,0.413l2.179,1.278
			C63.671,127.186,63.991,127.173,64.204,127.053"/>
		<path fill="#FFFFFF" d="M60.889,125.107l0.888-0.504c0.211-0.121,0.236-0.305,0.056-0.413l-2.179-1.279
			c-0.183-0.107-0.501-0.095-0.712,0.025l-0.89,0.501c-0.213,0.121-0.236,0.306-0.056,0.413l2.179,1.279
			C60.357,125.237,60.676,125.226,60.889,125.107"/>
		<path fill="#FFFFFF" d="M57.575,123.162l0.891-0.508c0.209-0.117,0.235-0.305,0.054-0.409l-2.18-1.283
			c-0.181-0.104-0.501-0.094-0.712,0.026l-0.889,0.505c-0.212,0.12-0.238,0.305-0.056,0.409l2.179,1.281
			C57.044,123.289,57.363,123.279,57.575,123.162"/>
		<path fill="#FFFFFF" d="M54.263,121.21l0.887-0.501c0.212-0.121,0.238-0.305,0.054-0.412l-2.177-1.279
			c-0.183-0.107-0.502-0.096-0.716,0.021l-0.887,0.505c-0.212,0.12-0.236,0.305-0.055,0.413l2.18,1.279
			C53.729,121.344,54.049,121.335,54.263,121.21"/>
		<path fill="#FFFFFF" d="M50.948,119.266l0.888-0.505c0.213-0.12,0.236-0.305,0.056-0.413l-2.179-1.279
			c-0.183-0.107-0.503-0.096-0.714,0.026l-0.889,0.5c-0.214,0.122-0.238,0.309-0.056,0.413l2.179,1.282
			C50.416,119.395,50.734,119.386,50.948,119.266"/>
		<path fill="#FFFFFF" d="M47.634,117.316l0.889-0.505c0.212-0.12,0.235-0.301,0.054-0.408l-2.179-1.283
			c-0.182-0.104-0.501-0.095-0.713,0.025l-0.889,0.505c-0.211,0.12-0.236,0.305-0.054,0.412l2.179,1.279
			C47.101,117.447,47.422,117.437,47.634,117.316"/>
		<path fill="#FFFFFF" d="M44.319,115.368l0.89-0.502c0.211-0.12,0.235-0.305,0.054-0.412l-2.179-1.279
			c-0.183-0.108-0.503-0.099-0.714,0.022l-0.89,0.504c-0.213,0.121-0.237,0.305-0.054,0.413l2.178,1.279
			C43.788,115.501,44.108,115.488,44.319,115.368"/>
		<path fill="#FFFFFF" d="M80.816,140.616l1.849-1.047c0.21-0.12,0.233-0.302,0.053-0.41l-2.135-1.253
			c-0.181-0.107-0.496-0.099-0.706,0.022l-1.849,1.051c-0.209,0.117-0.235,0.298-0.056,0.406l2.136,1.253
			C80.29,140.747,80.605,140.737,80.816,140.616"/>
		<path fill="#FFFFFF" d="M77.578,138.713l1.849-1.048c0.209-0.117,0.235-0.301,0.054-0.409l-2.135-1.254
			c-0.18-0.104-0.497-0.095-0.708,0.022l-1.847,1.05c-0.211,0.117-0.235,0.302-0.055,0.407l2.137,1.256
			C77.051,138.842,77.367,138.833,77.578,138.713"/>
		<path fill="#FFFFFF" d="M74.338,136.812l1.849-1.051c0.211-0.116,0.235-0.301,0.054-0.409l-2.135-1.253
			c-0.178-0.104-0.497-0.096-0.705,0.024l-1.85,1.047c-0.211,0.122-0.233,0.302-0.054,0.407l2.136,1.256
			C73.811,136.938,74.126,136.929,74.338,136.812"/>
		<path fill="#FFFFFF" d="M71.1,134.907l1.848-1.047c0.211-0.121,0.235-0.306,0.054-0.41l-2.136-1.256
			c-0.179-0.105-0.497-0.096-0.706,0.024l-1.849,1.048c-0.209,0.12-0.235,0.301-0.054,0.41l2.134,1.253
			C70.572,135.034,70.89,135.025,71.1,134.907"/>
		<path fill="#FFFFFF" d="M67.861,133.004l1.849-1.049c0.209-0.12,0.235-0.305,0.054-0.408l-2.136-1.258
			c-0.181-0.104-0.497-0.095-0.706,0.026l-1.849,1.05c-0.211,0.117-0.235,0.299-0.056,0.407l2.138,1.253
			C67.336,133.133,67.651,133.121,67.861,133.004"/>
		<path fill="#FFFFFF" d="M64.622,131.1l1.849-1.048c0.209-0.121,0.235-0.305,0.054-0.409l-2.135-1.257
			c-0.18-0.102-0.497-0.092-0.706,0.025l-1.849,1.05c-0.211,0.118-0.235,0.302-0.054,0.406l2.136,1.254
			C64.096,131.229,64.411,131.217,64.622,131.1"/>
		<path fill="#FFFFFF" d="M61.382,129.194l1.849-1.047c0.211-0.12,0.235-0.302,0.054-0.409l-2.134-1.254
			c-0.181-0.107-0.498-0.095-0.706,0.022l-1.851,1.051c-0.209,0.117-0.233,0.301-0.054,0.408l2.136,1.255
			C60.855,129.325,61.172,129.315,61.382,129.194"/>
		<path fill="#FFFFFF" d="M58.144,127.29l1.848-1.047c0.213-0.117,0.237-0.302,0.055-0.409l-2.136-1.254
			c-0.179-0.104-0.497-0.095-0.706,0.023l-1.849,1.05c-0.209,0.12-0.233,0.302-0.054,0.406l2.136,1.257
			C57.618,127.421,57.934,127.412,58.144,127.29"/>
		<path fill="#FFFFFF" d="M54.905,125.39l1.849-1.05c0.209-0.118,0.234-0.302,0.054-0.406l-2.136-1.254
			c-0.179-0.108-0.497-0.098-0.705,0.022l-1.85,1.047c-0.211,0.12-0.233,0.302-0.056,0.409l2.137,1.254
			C54.379,125.517,54.695,125.507,54.905,125.39"/>
		<path fill="#FFFFFF" d="M80.062,143.882l1.85-1.047c0.211-0.12,0.234-0.305,0.054-0.41l-2.134-1.256
			c-0.181-0.105-0.497-0.096-0.708,0.025l-1.849,1.047c-0.211,0.121-0.233,0.302-0.054,0.41l2.136,1.253
			C79.538,144.013,79.854,144,80.062,143.882"/>
		<path fill="#FFFFFF" d="M76.17,145.301l1.849-1.051c0.209-0.117,0.233-0.301,0.054-0.405l-2.138-1.258
			c-0.178-0.104-0.497-0.091-0.704,0.025l-1.85,1.048c-0.209,0.12-0.233,0.305-0.054,0.409l2.136,1.253
			C75.642,145.431,75.959,145.418,76.17,145.301"/>
		<path fill="#FFFFFF" d="M72.879,143.367l1.851-1.05c0.209-0.117,0.233-0.302,0.052-0.406l-2.136-1.257
			c-0.18-0.104-0.495-0.096-0.705,0.026l-1.85,1.047c-0.208,0.12-0.233,0.302-0.054,0.409l2.137,1.254
			C72.354,143.498,72.67,143.485,72.879,143.367"/>
		<path fill="#FFFFFF" d="M69.592,141.432l1.847-1.047c0.211-0.117,0.235-0.302,0.054-0.406l-2.136-1.257
			c-0.18-0.104-0.497-0.095-0.707,0.025l-1.849,1.048c-0.209,0.12-0.235,0.301-0.054,0.405l2.134,1.258
			C69.063,141.562,69.383,141.552,69.592,141.432"/>
		<path fill="#FFFFFF" d="M66.301,139.5l1.848-1.048c0.211-0.118,0.235-0.302,0.054-0.409l-2.136-1.253
			c-0.179-0.105-0.495-0.096-0.707,0.021l-1.849,1.05c-0.209,0.121-0.233,0.302-0.055,0.406l2.137,1.257
			C65.776,139.632,66.09,139.62,66.301,139.5"/>
		<path fill="#FFFFFF" d="M63.013,137.567l1.847-1.048c0.209-0.117,0.234-0.301,0.054-0.41l-2.136-1.253
			c-0.181-0.104-0.497-0.096-0.706,0.022l-1.849,1.05c-0.209,0.117-0.235,0.302-0.054,0.407l2.135,1.256
			C62.485,137.696,62.802,137.688,63.013,137.567"/>
		<path fill="#FFFFFF" d="M59.722,135.634l1.849-1.05c0.209-0.117,0.235-0.299,0.054-0.407l-2.136-1.253
			c-0.179-0.107-0.497-0.096-0.706,0.021l-1.849,1.052c-0.211,0.117-0.233,0.302-0.056,0.406l2.138,1.253
			C59.197,135.765,59.511,135.755,59.722,135.634"/>
		<path fill="#FFFFFF" d="M56.433,133.701l1.849-1.05c0.21-0.117,0.233-0.302,0.054-0.406l-2.136-1.254
			c-0.181-0.107-0.499-0.099-0.706,0.021l-1.85,1.048c-0.209,0.121-0.233,0.302-0.052,0.409l2.134,1.253
			C55.906,133.832,56.222,133.818,56.433,133.701"/>
		<path fill="#FFFFFF" d="M53.144,131.769l1.849-1.05c0.209-0.118,0.233-0.302,0.054-0.406l-2.138-1.258
			c-0.18-0.104-0.495-0.094-0.705,0.026l-1.85,1.047c-0.209,0.12-0.231,0.302-0.054,0.409l2.136,1.254
			C52.617,131.896,52.933,131.886,53.144,131.769"/>
		<path fill="#FFFFFF" d="M49.854,129.832l1.849-1.047c0.209-0.117,0.233-0.302,0.052-0.406l-2.136-1.257
			c-0.179-0.104-0.497-0.095-0.705,0.026l-1.85,1.047c-0.209,0.12-0.233,0.302-0.052,0.406l2.136,1.257
			C49.326,129.963,49.643,129.954,49.854,129.832"/>
		<path fill="#FFFFFF" d="M46.563,127.9l1.849-1.048c0.211-0.117,0.234-0.302,0.054-0.409l-2.136-1.253
			c-0.179-0.108-0.495-0.096-0.707,0.021l-1.848,1.051c-0.209,0.12-0.233,0.301-0.054,0.405l2.136,1.258
			C46.038,128.03,46.354,128.021,46.563,127.9"/>
		<path fill="#FFFFFF" d="M43.274,125.968l1.849-1.047c0.211-0.122,0.235-0.306,0.054-0.41l-2.136-1.253
			c-0.179-0.104-0.497-0.096-0.706,0.021l-1.85,1.05c-0.208,0.118-0.233,0.302-0.052,0.407l2.134,1.253
			C42.747,126.097,43.064,126.085,43.274,125.968"/>
		<path fill="#FFFFFF" d="M71.261,146.037l1.849-1.051c0.209-0.118,0.233-0.301,0.054-0.406l-2.136-1.256
			c-0.181-0.105-0.498-0.096-0.708,0.024l-1.849,1.047c-0.209,0.122-0.233,0.302-0.054,0.407l2.136,1.256
			C70.734,146.167,71.05,146.154,71.261,146.037"/>
		<path fill="#FFFFFF" d="M77.869,149.922l1.85-1.051c0.209-0.121,0.233-0.302,0.052-0.409l-5.376-3.158
			c-0.179-0.104-0.495-0.095-0.706,0.025l-1.849,1.047c-0.209,0.121-0.233,0.302-0.052,0.406l5.375,3.161
			C77.344,150.048,77.659,150.039,77.869,149.922"/>
		<path fill="#FFFFFF" d="M68.021,144.133l1.85-1.047c0.209-0.121,0.235-0.306,0.054-0.41l-2.137-1.256
			c-0.179-0.105-0.495-0.093-0.706,0.024l-1.848,1.052c-0.21,0.116-0.233,0.297-0.056,0.405l2.138,1.254
			C67.496,144.264,67.812,144.25,68.021,144.133"/>
		<path fill="#FFFFFF" d="M68.106,147.976l1.849-1.05c0.209-0.117,0.233-0.302,0.054-0.407l-2.136-1.256
			c-0.179-0.104-0.496-0.093-0.706,0.024l-1.849,1.052c-0.212,0.117-0.235,0.297-0.056,0.406l2.137,1.253
			C67.58,148.104,67.896,148.094,68.106,147.976"/>
		<path fill="#FFFFFF" d="M74.585,151.781l1.847-1.048c0.209-0.12,0.235-0.301,0.054-0.405l-5.375-3.161
			c-0.181-0.104-0.497-0.096-0.706,0.024l-1.848,1.048c-0.211,0.121-0.233,0.302-0.054,0.406l5.373,3.161
			C74.057,151.911,74.375,151.901,74.585,151.781"/>
		<path fill="#FFFFFF" d="M64.889,146.059l1.806-1.024c0.222-0.127,0.248-0.318,0.057-0.429l-2.366-1.39
			c-0.19-0.111-0.523-0.102-0.746,0.025l-1.806,1.025c-0.222,0.123-0.248,0.317-0.058,0.428l2.366,1.391
			C64.333,146.195,64.667,146.187,64.889,146.059"/>
		<path fill="#FFFFFF" d="M64.782,142.229l1.849-1.048c0.211-0.12,0.235-0.302,0.054-0.409l-2.134-1.253
			c-0.181-0.108-0.498-0.096-0.706,0.022l-1.85,1.047c-0.211,0.12-0.235,0.305-0.054,0.41l2.135,1.253
			C64.256,142.358,64.573,142.347,64.782,142.229"/>
		<path fill="#FFFFFF" d="M61.333,143.997l1.848-1.052c0.209-0.117,0.233-0.302,0.054-0.409L47.92,133.54
			c-0.181-0.108-0.497-0.096-0.706,0.021l-1.849,1.048c-0.211,0.12-0.235,0.304-0.054,0.408l15.314,9.001
			C60.806,144.123,61.122,144.114,61.333,143.997"/>
		<path fill="#FFFFFF" d="M61.544,140.325l1.849-1.048c0.209-0.121,0.233-0.302,0.054-0.409l-2.136-1.254
			c-0.179-0.108-0.497-0.095-0.706,0.022l-1.849,1.05c-0.211,0.121-0.234,0.302-0.055,0.406l2.135,1.257
			C61.017,140.454,61.334,140.445,61.544,140.325"/>
		<path fill="#FFFFFF" d="M58.304,138.42l1.85-1.047c0.209-0.117,0.235-0.302,0.054-0.406l-2.136-1.257
			c-0.181-0.104-0.497-0.095-0.708,0.025l-1.849,1.047c-0.209,0.121-0.233,0.302-0.054,0.409l2.137,1.255
			C57.778,138.551,58.094,138.541,58.304,138.42"/>
		<path fill="#FFFFFF" d="M55.065,136.52l1.849-1.051c0.211-0.117,0.234-0.302,0.054-0.406l-2.134-1.257
			c-0.181-0.104-0.497-0.095-0.707,0.026l-1.85,1.047c-0.209,0.12-0.233,0.302-0.053,0.409l2.134,1.254
			C54.54,136.646,54.857,136.638,55.065,136.52"/>
		<path fill="#FFFFFF" d="M51.827,134.615l1.85-1.048c0.209-0.12,0.233-0.304,0.052-0.408l-2.134-1.255
			c-0.181-0.107-0.499-0.094-0.708,0.023l-1.847,1.05c-0.212,0.117-0.236,0.302-0.055,0.406l2.135,1.254
			C51.301,134.745,51.617,134.732,51.827,134.615"/>
		<path fill="#FFFFFF" d="M48.588,132.711l1.849-1.047c0.211-0.121,0.235-0.302,0.054-0.409l-2.135-1.254
			c-0.178-0.107-0.495-0.095-0.707,0.022l-1.85,1.05c-0.209,0.118-0.231,0.302-0.052,0.406l2.136,1.254
			C48.061,132.841,48.377,132.831,48.588,132.711"/>
		<path fill="#FFFFFF" d="M45.348,130.807l1.85-1.047c0.211-0.12,0.235-0.302,0.054-0.409l-2.136-1.254
			c-0.181-0.104-0.497-0.095-0.706,0.022l-1.851,1.051c-0.209,0.117-0.233,0.301-0.052,0.405l2.135,1.258
			C44.822,130.938,45.139,130.928,45.348,130.807"/>
		<path fill="#FFFFFF" d="M42.111,128.906l1.849-1.051c0.209-0.117,0.233-0.302,0.052-0.409l-2.134-1.254
			c-0.181-0.107-0.498-0.096-0.706,0.022l-1.85,1.051c-0.209,0.12-0.233,0.302-0.053,0.409l2.135,1.254
			C41.584,129.033,41.9,129.023,42.111,128.906"/>
		<path fill="#FFFFFF" d="M38.808,126.964l1.848-1.047c0.211-0.12,0.235-0.305,0.056-0.41l-2.137-1.256
			c-0.179-0.102-0.496-0.093-0.707,0.024l-1.849,1.052c-0.208,0.117-0.233,0.301-0.054,0.405l2.136,1.254
			C38.282,127.095,38.598,127.081,38.808,126.964"/>
		<path fill="#FFFFFF" d="M44.781,134.267l1.85-1.044c0.208-0.122,0.233-0.305,0.052-0.41l-2.134-1.256
			c-0.181-0.105-0.498-0.096-0.708,0.024l-1.849,1.047c-0.209,0.122-0.233,0.302-0.054,0.407l2.136,1.256
			C44.255,134.396,44.572,134.387,44.781,134.267"/>
		<path fill="#FFFFFF" d="M41.543,132.365l1.848-1.051c0.211-0.117,0.235-0.302,0.054-0.406l-2.135-1.256
			c-0.18-0.105-0.497-0.096-0.706,0.024l-1.849,1.052c-0.209,0.116-0.235,0.297-0.055,0.406l2.138,1.253
			C41.018,132.492,41.333,132.483,41.543,132.365"/>
		<path fill="#FFFFFF" d="M38.304,130.462l1.848-1.049c0.209-0.12,0.235-0.3,0.054-0.409l-2.134-1.253
			c-0.181-0.108-0.498-0.096-0.708,0.022l-1.85,1.047c-0.208,0.12-0.233,0.305-0.053,0.41l2.136,1.253
			C37.779,130.591,38.095,130.579,38.304,130.462"/>
		<path fill="#FFFFFF" d="M35.088,128.545l1.804-1.022c0.222-0.127,0.247-0.32,0.057-0.431l-2.377-1.396
			c-0.191-0.115-0.526-0.102-0.747,0.024l-1.806,1.022c-0.222,0.126-0.248,0.317-0.057,0.431l2.378,1.396
			C34.531,128.684,34.866,128.671,35.088,128.545"/>
		<path fill="#FFFFFF" d="M31.453,126.434l1.847-1.05c0.211-0.118,0.235-0.302,0.056-0.406l-2.134-1.253
			c-0.181-0.105-0.498-0.096-0.708,0.024l-1.851,1.047c-0.209,0.118-0.233,0.302-0.052,0.406l2.135,1.257
			C30.926,126.563,31.243,126.551,31.453,126.434"/>
		<path fill="#FFFFFF" d="M28.141,124.488l1.849-1.051c0.209-0.116,0.233-0.298,0.052-0.406l-2.134-1.253
			c-0.181-0.108-0.499-0.099-0.706,0.022l-1.849,1.051c-0.211,0.117-0.235,0.302-0.054,0.406l2.134,1.253
			C27.614,124.615,27.93,124.609,28.141,124.488"/>
		<path fill="#FFFFFF" d="M35.537,125.044l1.849-1.05c0.211-0.117,0.236-0.302,0.055-0.41l-2.937-1.723
			c-0.181-0.108-0.497-0.096-0.707,0.024l-1.848,1.044c-0.211,0.122-0.235,0.305-0.056,0.41l2.937,1.727
			C35.012,125.171,35.327,125.161,35.537,125.044"/>
		<path fill="#FFFFFF" d="M31.426,122.625l1.848-1.047c0.211-0.12,0.235-0.305,0.054-0.409l-2.136-1.257
			c-0.179-0.104-0.497-0.096-0.706,0.026l-1.851,1.047c-0.208,0.12-0.233,0.302-0.054,0.409l2.136,1.254
			C30.898,122.756,31.215,122.743,31.426,122.625"/>
		<path fill="#FFFFFF" d="M40.032,124.06l1.849-1.047c0.209-0.117,0.233-0.302,0.052-0.406l-4.294-2.526
			c-0.18-0.104-0.497-0.095-0.706,0.026l-1.849,1.047c-0.211,0.12-0.235,0.302-0.055,0.409l4.295,2.523
			C39.505,124.19,39.821,124.181,40.032,124.06"/>
		<path fill="#FFFFFF" d="M84.216,146.319l1.847-1.048c0.211-0.12,0.235-0.301,0.056-0.406l-2.882-1.693
			c-0.181-0.105-0.496-0.096-0.706,0.024l-1.849,1.047c-0.211,0.122-0.233,0.302-0.054,0.406l2.88,1.695
			C83.689,146.449,84.004,146.44,84.216,146.319"/>
		<path fill="#FFFFFF" d="M81.004,148.141l1.849-1.047c0.211-0.121,0.234-0.302,0.054-0.41l-3.625-2.129
			c-0.18-0.104-0.495-0.096-0.706,0.022l-1.849,1.051c-0.208,0.116-0.233,0.301-0.054,0.406l3.625,2.132
			C80.477,148.271,80.793,148.259,81.004,148.141"/>
		<path fill="#FFFFFF" d="M76.826,141.979l1.849-1.052c0.208-0.117,0.233-0.301,0.052-0.405l-2.136-1.254
			c-0.181-0.108-0.497-0.095-0.707,0.022l-1.848,1.047c-0.209,0.12-0.235,0.305-0.054,0.41L76.117,142
			C76.297,142.107,76.615,142.096,76.826,141.979"/>
		<path fill="#FFFFFF" d="M73.586,140.074l1.849-1.048c0.209-0.121,0.235-0.301,0.054-0.409l-2.136-1.253
			c-0.179-0.108-0.497-0.096-0.706,0.021l-1.849,1.05c-0.211,0.118-0.233,0.302-0.054,0.406l2.135,1.257
			C73.059,140.203,73.375,140.194,73.586,140.074"/>
		<path fill="#FFFFFF" d="M70.347,138.17l1.849-1.048c0.209-0.12,0.233-0.302,0.054-0.406l-2.137-1.256
			c-0.179-0.105-0.495-0.096-0.704,0.024l-1.851,1.048c-0.209,0.12-0.233,0.301-0.054,0.405l2.135,1.258
			C69.82,138.3,70.136,138.291,70.347,138.17"/>
		<path fill="#FFFFFF" d="M67.109,136.27l1.847-1.052c0.211-0.117,0.235-0.302,0.056-0.406l-2.136-1.257
			c-0.181-0.104-0.498-0.095-0.708,0.026l-1.851,1.047c-0.208,0.12-0.231,0.302-0.052,0.409l2.136,1.254
			C66.582,136.396,66.899,136.387,67.109,136.27"/>
		<path fill="#FFFFFF" d="M63.87,134.365l1.847-1.051c0.211-0.118,0.235-0.302,0.054-0.406l-2.136-1.258
			c-0.181-0.104-0.495-0.091-0.706,0.026l-1.849,1.05c-0.209,0.118-0.233,0.299-0.054,0.406l2.135,1.254
			C63.343,134.491,63.658,134.482,63.87,134.365"/>
		<path fill="#FFFFFF" d="M60.63,132.46l1.849-1.047c0.209-0.12,0.233-0.302,0.054-0.409l-2.136-1.254
			c-0.179-0.107-0.497-0.098-0.706,0.022l-1.85,1.047c-0.209,0.121-0.231,0.302-0.053,0.409l2.136,1.255
			C60.103,132.591,60.419,132.581,60.63,132.46"/>
		<path fill="#FFFFFF" d="M57.39,130.556l1.849-1.047c0.211-0.12,0.235-0.305,0.055-0.409l-2.135-1.254
			c-0.181-0.104-0.497-0.095-0.708,0.023l-1.848,1.05c-0.208,0.117-0.233,0.302-0.055,0.406l2.136,1.257
			C56.865,130.687,57.182,130.674,57.39,130.556"/>
		<path fill="#FFFFFF" d="M54.152,128.655l1.849-1.05c0.209-0.118,0.233-0.302,0.052-0.409l-2.136-1.255
			c-0.18-0.107-0.495-0.094-0.706,0.023l-1.849,1.05c-0.209,0.12-0.235,0.302-0.054,0.409l2.135,1.254
			C53.626,128.782,53.943,128.772,54.152,128.655"/>
		<path fill="#FFFFFF" d="M50.914,126.748l1.847-1.047c0.211-0.117,0.235-0.302,0.056-0.406l-2.138-1.257
			c-0.179-0.104-0.497-0.096-0.706,0.025l-1.849,1.047c-0.211,0.121-0.233,0.302-0.054,0.406l2.136,1.257
			C50.387,126.878,50.703,126.868,50.914,126.748"/>
		<path fill="#FFFFFF" d="M47.579,124.79l1.848-1.047c0.211-0.117,0.235-0.306,0.054-0.41l-2.136-1.253
			c-0.179-0.104-0.497-0.096-0.705,0.021l-1.851,1.052c-0.209,0.117-0.235,0.3-0.054,0.405l2.136,1.257
			C47.053,124.921,47.368,124.907,47.579,124.79"/>
		<path fill="#FFFFFF" d="M44.286,122.854l1.849-1.047c0.211-0.122,0.235-0.302,0.054-0.407l-2.135-1.256
			c-0.18-0.104-0.497-0.096-0.706,0.024l-1.849,1.048c-0.211,0.118-0.233,0.301-0.054,0.406l2.136,1.256
			C43.761,122.984,44.075,122.975,44.286,122.854"/>
		<path fill="#FFFFFF" d="M41.048,120.953l1.848-1.051c0.209-0.116,0.233-0.301,0.054-0.409l-2.137-1.253
			c-0.18-0.104-0.495-0.096-0.705,0.021l-1.851,1.051c-0.211,0.121-0.233,0.301-0.052,0.41l2.135,1.253
			C40.521,121.084,40.837,121.07,41.048,120.953"/>
		<path fill="#FFFFFF" d="M51.666,123.485l1.849-1.047c0.209-0.12,0.235-0.305,0.054-0.409l-2.136-1.257
			c-0.179-0.104-0.497-0.095-0.706,0.025l-1.85,1.05c-0.209,0.118-0.233,0.302-0.052,0.406l2.135,1.255
			C51.14,123.616,51.457,123.603,51.666,123.485"/>
		<path fill="#FFFFFF" d="M48.428,121.581l1.849-1.047c0.209-0.12,0.233-0.305,0.054-0.409l-2.135-1.254
			c-0.182-0.107-0.499-0.095-0.707,0.023l-1.849,1.05c-0.211,0.117-0.235,0.302-0.055,0.406l2.135,1.254
			C47.901,121.712,48.216,121.699,48.428,121.581"/>
		<path fill="#FFFFFF" d="M45.187,119.678l1.849-1.048c0.211-0.117,0.236-0.301,0.056-0.405l-3.031-1.784
			c-0.181-0.104-0.495-0.093-0.706,0.025l-1.849,1.048c-0.21,0.12-0.233,0.305-0.054,0.409l3.029,1.78
			C44.662,119.808,44.978,119.798,45.187,119.678"/>
		<path fill="#FFFFFF" d="M40.981,117.205l1.849-1.047c0.211-0.118,0.235-0.302,0.054-0.409l-2.136-1.254
			c-0.179-0.104-0.497-0.095-0.706,0.022l-1.848,1.05c-0.209,0.118-0.233,0.302-0.054,0.406l2.136,1.257
			C40.456,117.335,40.77,117.325,40.981,117.205"/>
		<path fill="#FFFFFF" d="M37.771,119.026l1.849-1.05c0.209-0.117,0.233-0.302,0.054-0.406l-2.134-1.257
			c-0.181-0.104-0.499-0.092-0.707,0.025l-1.852,1.047c-0.208,0.121-0.231,0.305-0.052,0.409l2.135,1.255
			C37.244,119.157,37.56,119.144,37.771,119.026"/>
		<path fill="#FFFFFF" d="M34.56,120.845l1.85-1.047c0.209-0.117,0.233-0.302,0.054-0.406l-2.136-1.256
			c-0.181-0.105-0.497-0.096-0.706,0.024l-1.851,1.048c-0.208,0.12-0.232,0.301-0.053,0.405l2.136,1.258
			C34.034,120.976,34.352,120.966,34.56,120.845"/>
	</g>
	<g>
		<path fill="#919294" d="M84.751,126.003l-13.642-7.97c-2.796-1.63-2.526-4.309,0.581-5.763l16.411-7.696l17.1,9.873l1.202,0.692
			l1.696,0.98l-13.281,9.562C92.282,127.504,87.578,127.655,84.751,126.003"/>
		<path fill="#D6D8DF" stroke="#D6D8DF" stroke-width="0.5" stroke-linejoin="bevel" stroke-miterlimit="10" d="M84.751,124.694
			l-13.642-7.965c-2.796-1.635-2.526-4.31,0.581-5.766l16.411-7.697l19.998,11.546l-13.281,9.559
			C92.282,126.195,87.578,126.348,84.751,124.694"/>
		<path fill="#CCCDCD" d="M50.108,3.508L50.03,3.551l0.001,0.009C50.059,3.544,50.081,3.524,50.108,3.508"/>
		<path fill="#E2E4E9" stroke="#E2E4E9" stroke-width="0.5" stroke-linejoin="bevel" stroke-miterlimit="10" d="M129.292,44.105
			L56.806,2.943c-1.895-1.095-3.612-1.19-4.841-0.46l-1.598,1.329c1.218-0.646,2.763-0.908,4.589,0.146l72.487,41.164
			c7.442,4.16,6.785,6.699,6.775,11.686v62.118v4.818c0,2.024-0.679,3.469-1.785,4.214l1.601-0.856
			c0.023-0.013,0.048-0.022,0.071-0.035l0.035-0.019v-0.007c1.191-0.714,1.929-2.202,1.929-4.313v-4.816V55.792
			C136.068,49.546,136.149,47.758,129.292,44.105"/>
		<path fill="#EAECF3" stroke="#EAECF3" stroke-width="0.5" stroke-linejoin="bevel" stroke-miterlimit="10" d="M54.956,86.442
			l72.487,41.163c3.741,2.16,6.775,0.428,6.775-3.862v-4.818L48.18,69.938v4.817C48.18,82.692,50.118,83.021,54.956,86.442"/>
		<path fill="#303133" d="M134.218,56.807c0.01-5.326,0.258-7.261-5.3-10.825L54.956,3.958c-3.742-2.161-6.775-0.431-6.775,3.862
			v62.117l86.038,48.987V56.807z"/>
		<linearGradient id="SVGID_4_" gradientUnits="userSpaceOnUse" x1="130.5576" y1="60.4233" x2="51.312" y2="60.4233">
			<stop  offset="0" style="stop-color:#94DCFF"/>
			<stop  offset="1" style="stop-color:#158CFF"/>
		</linearGradient>
		<polygon fill="url(#SVGID_4_)" points="130.558,113.273 51.312,68.207 51.312,7.574 130.558,52.639 		"/>
		<path fill="#68696B" d="M91.601,100.579c0-0.444,0.26-0.663,0.612-0.578c-0.272-0.676-0.765-1.307-1.331-1.63
			c-0.861-0.502-1.563-0.099-1.563,0.891c0,0.99,0.702,2.196,1.563,2.695c0.566,0.326,1.059,0.263,1.331-0.096
			C91.86,101.541,91.601,101.021,91.601,100.579"/>
		<g opacity="0.45">
			<g>
				<defs>
					<polygon id="SVGID_5_" points="87.698,122.14 138.318,127.561 134.218,22.276 87.873,22.276 					"/>
				</defs>
				<clipPath id="SVGID_6_">
					<use xlink:href="#SVGID_5_"  overflow="visible"/>
				</clipPath>
				<path opacity="0.5" clip-path="url(#SVGID_6_)" fill="#FFFFFF" d="M134.218,56.807c0.01-4.479,0.234-5.562-1.814-8.089
					c-0.957-1.18-2.771-2.353-4.961-3.597L88.637,23.084c6.444,12.882,12.3,46.151,18.701,80.491l26.88,15.35V56.807z"/>
			</g>
		</g>
	</g>
</g>
</svg>
