<?xml version="1.0" encoding="utf-8"?>
<!-- Generator: Adobe Illustrator 16.0.0, SVG Export Plug-In . SVG Version: 6.00 Build 0)  -->
<!DOCTYPE svg PUBLIC "-//W3C//DTD SVG 1.1//EN" "http://www.w3.org/Graphics/SVG/1.1/DTD/svg11.dtd">
<svg version="1.1" id="图层_1" xmlns="http://www.w3.org/2000/svg" xmlns:xlink="http://www.w3.org/1999/xlink" x="0px" y="0px"
	 width="160px" height="160px" viewBox="0 0 160 160" enable-background="new 0 0 160 160" xml:space="preserve">
<g>
	<polygon fill="#4C4C4F" points="67.793,157.478 27.783,134.378 27.783,38.372 67.793,61.47 	"/>
	<polygon fill="#303133" points="132.396,119.808 67.767,157.48 67.767,61.47 132.396,23.802 	"/>
	<polygon fill="#3A3A3A" points="132.42,23.81 67.789,61.479 28.024,38.523 93.864,2.062 	"/>
	<g>
		<path fill="#1D1D1E" d="M31.867,131.805c-0.003-0.406-0.294-0.895-0.644-1.09c-0.353-0.199-0.633-0.035-0.628,0.374
			c0.003,0.407,0.293,0.896,0.643,1.091C31.592,132.379,31.874,132.215,31.867,131.805"/>
		<path fill="#1D1D1E" d="M34.594,133.343c-0.003-0.41-0.292-0.897-0.643-1.097c-0.353-0.198-0.631-0.031-0.63,0.378
			c0.006,0.408,0.292,0.896,0.649,1.093C34.32,133.917,34.602,133.746,34.594,133.343"/>
		<path fill="#1D1D1E" d="M37.327,134.874c-0.005-0.402-0.296-0.894-0.645-1.093c-0.353-0.195-0.631-0.026-0.631,0.377
			c0.005,0.406,0.294,0.896,0.649,1.095C37.048,135.453,37.33,135.283,37.327,134.874"/>
		<path fill="#1D1D1E" d="M40.056,136.412c-0.005-0.408-0.294-0.896-0.647-1.094c-0.35-0.197-0.63-0.032-0.627,0.377
			c0.003,0.408,0.293,0.894,0.646,1.091C39.781,136.985,40.061,136.818,40.056,136.412"/>
		<path fill="#1D1D1E" d="M42.782,137.949c-0.003-0.409-0.291-0.897-0.643-1.095c-0.352-0.2-0.633-0.03-0.63,0.374
			c0.005,0.409,0.293,0.897,0.644,1.095C42.507,138.519,42.789,138.354,42.782,137.949"/>
		<path fill="#1D1D1E" d="M45.514,139.482c-0.003-0.405-0.292-0.893-0.646-1.093c-0.352-0.199-0.631-0.032-0.63,0.377
			c0.005,0.405,0.294,0.894,0.649,1.093C45.238,140.057,45.518,139.887,45.514,139.482"/>
		<path fill="#1D1D1E" d="M48.246,141.019c-0.008-0.407-0.299-0.896-0.65-1.096c-0.352-0.195-0.632-0.03-0.624,0.384
			c0,0.4,0.29,0.889,0.644,1.086C47.965,141.593,48.248,141.426,48.246,141.019"/>
		<path fill="#1D1D1E" d="M50.971,142.551c-0.003-0.402-0.292-0.891-0.643-1.09c-0.356-0.2-0.633-0.031-0.631,0.374
			c0.006,0.405,0.297,0.896,0.647,1.096C50.694,143.128,50.976,142.963,50.971,142.551"/>
		<path fill="#1D1D1E" d="M53.699,144.087c-0.003-0.403-0.292-0.894-0.643-1.091c-0.353-0.197-0.631-0.033-0.63,0.375
			c0.008,0.406,0.294,0.893,0.645,1.097C53.422,144.665,53.707,144.496,53.699,144.087"/>
		<path fill="#1D1D1E" d="M56.432,145.625c-0.005-0.411-0.294-0.896-0.649-1.096c-0.349-0.197-0.63-0.028-0.628,0.377
			c0.005,0.409,0.294,0.896,0.647,1.095C56.153,146.199,56.435,146.029,56.432,145.625"/>
		<path fill="#1D1D1E" d="M59.155,147.16c0-0.41-0.288-0.896-0.641-1.094c-0.35-0.196-0.63-0.03-0.628,0.377
			c0.006,0.41,0.293,0.896,0.645,1.093C58.883,147.733,59.16,147.562,59.155,147.16"/>
		<path fill="#1D1D1E" d="M61.889,148.697c-0.008-0.411-0.296-0.897-0.646-1.095c-0.353-0.199-0.635-0.032-0.626,0.374
			c0.003,0.408,0.292,0.896,0.643,1.093C61.611,149.268,61.892,149.101,61.889,148.697"/>
		<path fill="#1D1D1E" d="M64.248,150.008c-0.003-0.409-0.293-0.897-0.64-1.095c-0.353-0.197-0.638-0.03-0.631,0.376
			c0.005,0.408,0.292,0.896,0.647,1.094C63.973,150.58,64.256,150.412,64.248,150.008"/>
		<path fill="#1D1D1E" d="M31.837,129.073c-0.001-0.407-0.289-0.894-0.644-1.093c-0.352-0.197-0.631-0.028-0.631,0.377
			c0.008,0.407,0.294,0.894,0.647,1.095C31.562,129.65,31.842,129.479,31.837,129.073"/>
		<path fill="#1D1D1E" d="M34.565,130.609c0-0.406-0.288-0.894-0.644-1.096c-0.352-0.193-0.631-0.028-0.628,0.382
			c0.008,0.402,0.296,0.891,0.645,1.093C34.29,131.183,34.57,131.016,34.565,130.609"/>
		<path fill="#1D1D1E" d="M37.296,132.144c-0.006-0.407-0.293-0.892-0.649-1.095c-0.35-0.195-0.632-0.025-0.624,0.379
			c0.003,0.41,0.292,0.896,0.643,1.091C37.02,132.723,37.296,132.552,37.296,132.144"/>
		<path fill="#1D1D1E" d="M40.027,133.68c-0.006-0.405-0.294-0.893-0.646-1.091c-0.354-0.199-0.634-0.032-0.631,0.377
			c0.005,0.403,0.296,0.892,0.646,1.091C39.746,134.254,40.027,134.085,40.027,133.68"/>
		<path fill="#1D1D1E" d="M42.755,135.215c-0.005-0.405-0.296-0.895-0.646-1.09c-0.352-0.2-0.633-0.033-0.626,0.376
			c0.003,0.403,0.292,0.892,0.641,1.096C42.476,135.791,42.758,135.623,42.755,135.215"/>
		<path fill="#1D1D1E" d="M45.481,136.751c-0.004-0.407-0.294-0.896-0.643-1.093c-0.353-0.198-0.633-0.03-0.631,0.377
			c0.006,0.406,0.297,0.897,0.647,1.093C45.207,137.325,45.49,137.157,45.481,136.751"/>
		<path fill="#1D1D1E" d="M48.211,138.284c-0.003-0.405-0.292-0.896-0.641-1.089c-0.355-0.199-0.633-0.03-0.63,0.377
			c0.001,0.407,0.29,0.893,0.644,1.091C47.936,138.862,48.216,138.691,48.211,138.284"/>
		<path fill="#1D1D1E" d="M50.942,139.823c-0.005-0.406-0.296-0.895-0.645-1.097c-0.356-0.193-0.636-0.028-0.631,0.376
			c0.005,0.41,0.294,0.898,0.651,1.098C50.664,140.397,50.944,140.23,50.942,139.823"/>
		<path fill="#1D1D1E" d="M53.672,141.354c-0.006-0.402-0.294-0.891-0.644-1.091c-0.355-0.197-0.632-0.029-0.627,0.375
			c0,0.407,0.29,0.897,0.64,1.093C53.396,141.934,53.672,141.765,53.672,141.354"/>
		<path fill="#1D1D1E" d="M56.398,142.893c-0.003-0.407-0.29-0.891-0.645-1.094c-0.35-0.194-0.631-0.026-0.628,0.378
			c0.006,0.404,0.296,0.893,0.645,1.096C56.123,143.47,56.403,143.297,56.398,142.893"/>
		<path fill="#1D1D1E" d="M59.126,144.428c0-0.409-0.29-0.897-0.643-1.095c-0.352-0.198-0.633-0.028-0.63,0.379
			c0.003,0.407,0.296,0.897,0.647,1.091C58.851,145.002,59.132,144.835,59.126,144.428"/>
		<path fill="#1D1D1E" d="M61.859,145.964c-0.005-0.407-0.296-0.898-0.647-1.091c-0.35-0.199-0.633-0.03-0.625,0.374
			c0.001,0.405,0.288,0.894,0.643,1.091C61.583,146.54,61.86,146.37,61.859,145.964"/>
		<path fill="#1D1D1E" d="M64.588,147.499c-0.008-0.408-0.296-0.896-0.644-1.093c-0.355-0.2-0.633-0.028-0.632,0.379
			c0.006,0.402,0.294,0.894,0.646,1.088C64.312,148.073,64.592,147.905,64.588,147.499"/>
		<path fill="#1D1D1E" d="M31.807,126.346c-0.006-0.411-0.294-0.896-0.647-1.097c-0.352-0.198-0.63-0.028-0.625,0.376
			c0.003,0.407,0.292,0.894,0.646,1.099C31.528,126.92,31.812,126.751,31.807,126.346"/>
		<path fill="#1D1D1E" d="M34.535,127.879c-0.001-0.407-0.289-0.896-0.647-1.093c-0.347-0.199-0.628-0.032-0.625,0.377
			c0.002,0.404,0.292,0.893,0.646,1.093C34.261,128.453,34.54,128.284,34.535,127.879"/>
		<path fill="#1D1D1E" d="M37.265,129.417c-0.005-0.412-0.293-0.898-0.646-1.096c-0.35-0.197-0.631-0.029-0.624,0.377
			c-0.003,0.405,0.288,0.896,0.641,1.094C36.989,129.991,37.272,129.817,37.265,129.417"/>
		<path fill="#1D1D1E" d="M39.994,130.95c0-0.407-0.292-0.898-0.646-1.093c-0.35-0.199-0.633-0.032-0.626,0.377
			c0.004,0.41,0.292,0.893,0.646,1.09C39.716,131.524,39.997,131.357,39.994,130.95"/>
		<path fill="#1D1D1E" d="M42.724,132.483c-0.003-0.402-0.294-0.894-0.645-1.091c-0.353-0.197-0.633-0.028-0.631,0.377
			c0.005,0.404,0.296,0.897,0.647,1.093C42.447,133.06,42.727,132.893,42.724,132.483"/>
		<path fill="#1D1D1E" d="M45.453,134.019c-0.003-0.405-0.293-0.893-0.649-1.091c-0.35-0.199-0.627-0.03-0.628,0.377
			c0.006,0.408,0.294,0.896,0.647,1.093C45.178,134.596,45.458,134.426,45.453,134.019"/>
		<path fill="#1D1D1E" d="M48.181,135.557c0-0.405-0.29-0.896-0.643-1.093c-0.353-0.203-0.634-0.03-0.63,0.374
			c0.003,0.408,0.293,0.896,0.645,1.094C47.907,136.131,48.186,135.962,48.181,135.557"/>
		<path fill="#1D1D1E" d="M50.912,137.094c-0.006-0.412-0.292-0.899-0.649-1.094c-0.35-0.198-0.631-0.034-0.624,0.376
			c0.001,0.405,0.29,0.893,0.641,1.093C50.632,137.668,50.914,137.5,50.912,137.094"/>
		<path fill="#1D1D1E" d="M53.64,138.628c-0.005-0.405-0.294-0.894-0.645-1.098c-0.353-0.195-0.634-0.026-0.63,0.379
			c0.003,0.407,0.294,0.894,0.649,1.095C53.362,139.199,53.64,139.032,53.64,138.628"/>
		<path fill="#1D1D1E" d="M56.371,140.161c-0.008-0.408-0.296-0.894-0.647-1.091c-0.353-0.199-0.631-0.03-0.625,0.377
			c0.001,0.402,0.291,0.891,0.64,1.095C56.093,140.739,56.375,140.568,56.371,140.161"/>
		<path fill="#1D1D1E" d="M59.098,141.7c0-0.407-0.291-0.899-0.646-1.097c-0.35-0.197-0.631-0.03-0.626,0.379
			c0.008,0.407,0.294,0.891,0.643,1.093C58.821,142.271,59.104,142.105,59.098,141.7"/>
		<path fill="#1D1D1E" d="M61.827,143.234c-0.002-0.412-0.291-0.896-0.641-1.093c-0.356-0.2-0.638-0.033-0.636,0.374
			c0.008,0.409,0.297,0.897,0.647,1.095C61.552,143.808,61.83,143.637,61.827,143.234"/>
		<path fill="#1D1D1E" d="M64.557,144.765c-0.005-0.402-0.296-0.891-0.645-1.093c-0.353-0.195-0.634-0.025-0.63,0.377
			c0.003,0.411,0.293,0.897,0.645,1.095C64.28,145.346,64.562,145.176,64.557,144.765"/>
		<path fill="#1D1D1E" d="M31.777,123.614c-0.002-0.405-0.294-0.896-0.645-1.093c-0.354-0.199-0.634-0.037-0.628,0.374
			c0.003,0.405,0.292,0.894,0.644,1.098C31.499,124.186,31.778,124.02,31.777,123.614"/>
		<path fill="#1D1D1E" d="M34.506,125.146c-0.005-0.406-0.293-0.893-0.647-1.092c-0.352-0.198-0.631-0.03-0.628,0.377
			c0.006,0.406,0.297,0.895,0.646,1.093C34.231,125.724,34.513,125.557,34.506,125.146"/>
		<path fill="#1D1D1E" d="M37.231,126.683c0.001-0.407-0.285-0.893-0.641-1.09c-0.352-0.2-0.631-0.033-0.63,0.377
			c0.005,0.406,0.293,0.895,0.645,1.093C36.959,127.259,37.237,127.088,37.231,126.683"/>
		<path fill="#1D1D1E" d="M39.964,128.219c-0.002-0.408-0.291-0.896-0.643-1.093c-0.355-0.198-0.633-0.03-0.632,0.376
			c0.005,0.408,0.293,0.896,0.646,1.094C39.688,128.795,39.97,128.625,39.964,128.219"/>
		<path fill="#1D1D1E" d="M42.695,129.753c-0.008-0.404-0.296-0.895-0.647-1.092c-0.354-0.197-0.633-0.03-0.628,0.377
			c0.006,0.404,0.296,0.895,0.646,1.095C42.417,130.331,42.696,130.163,42.695,129.753"/>
		<path fill="#1D1D1E" d="M45.424,131.287c-0.008-0.402-0.297-0.892-0.647-1.093c-0.35-0.195-0.631-0.028-0.631,0.377
			c0.006,0.407,0.296,0.896,0.649,1.097C45.146,131.866,45.424,131.694,45.424,131.287"/>
		<path fill="#1D1D1E" d="M48.154,132.825c-0.006-0.407-0.296-0.896-0.649-1.093c-0.348-0.2-0.63-0.03-0.63,0.376
			c0.008,0.407,0.297,0.894,0.647,1.094C47.874,133.398,48.155,133.229,48.154,132.825"/>
		<path fill="#1D1D1E" d="M50.879,134.362c0-0.409-0.288-0.896-0.643-1.096c-0.351-0.197-0.633-0.032-0.63,0.375
			c0.005,0.407,0.296,0.897,0.647,1.096C50.604,134.934,50.885,134.767,50.879,134.362"/>
		<path fill="#1D1D1E" d="M53.608,135.896c-0.005-0.405-0.296-0.894-0.643-1.096c-0.354-0.194-0.635-0.027-0.63,0.377
			c0.003,0.41,0.292,0.898,0.647,1.098C53.334,136.475,53.613,136.305,53.608,135.896"/>
		<path fill="#1D1D1E" d="M56.336,137.431c-0.001-0.406-0.291-0.893-0.641-1.095c-0.354-0.195-0.635-0.025-0.632,0.379
			c0.005,0.405,0.294,0.896,0.647,1.09C56.062,138.006,56.343,137.838,56.336,137.431"/>
		<path fill="#1D1D1E" d="M59.067,138.966c-0.003-0.407-0.294-0.896-0.645-1.09c-0.353-0.2-0.631-0.033-0.628,0.375
			c0.004,0.404,0.292,0.893,0.644,1.093C58.792,139.545,59.074,139.373,59.067,138.966"/>
		<path fill="#1D1D1E" d="M61.797,140.5c-0.006-0.405-0.293-0.892-0.647-1.091c-0.348-0.195-0.63-0.032-0.625,0.375
			c0.001,0.406,0.292,0.897,0.644,1.097C61.523,141.074,61.802,140.909,61.797,140.5"/>
		<path fill="#1D1D1E" d="M64.525,142.038c0-0.407-0.29-0.896-0.645-1.093c-0.354-0.197-0.631-0.026-0.628,0.376
			c0.001,0.407,0.292,0.896,0.646,1.09C64.25,142.614,64.528,142.442,64.525,142.038"/>
	</g>
	<linearGradient id="SVGID_1_" gradientUnits="userSpaceOnUse" x1="58.9258" y1="72.4258" x2="63.0742" y2="72.4258">
		<stop  offset="0" style="stop-color:#94DCFF"/>
		<stop  offset="1" style="stop-color:#158CFF"/>
	</linearGradient>
	<path fill="url(#SVGID_1_)" d="M63.074,73.624c0,1.314-0.927,1.844-2.073,1.18c-1.142-0.657-2.076-2.26-2.076-3.577
		c0-1.312,0.934-1.84,2.076-1.179C62.147,70.708,63.074,72.31,63.074,73.624"/>
	<linearGradient id="SVGID_2_" gradientUnits="userSpaceOnUse" x1="58.6616" y1="81.0107" x2="62.7212" y2="81.0107">
		<stop  offset="0" style="stop-color:#FF8D7F"/>
		<stop  offset="1" style="stop-color:#FF3F75"/>
	</linearGradient>
	<path fill="url(#SVGID_2_)" d="M62.721,82.182c0,1.285-0.909,1.804-2.028,1.156c-1.118-0.642-2.031-2.211-2.031-3.503
		c0-1.28,0.913-1.799,2.031-1.151C61.812,79.328,62.721,80.897,62.721,82.182"/>
	<polygon fill="#2E2E33" points="55.6,71.125 33.515,57.879 33.359,53.585 55.442,66.83 	"/>
	<polygon fill="#2E2E33" points="55.862,80.996 33.778,67.751 33.619,63.456 55.705,76.702 	"/>
	<linearGradient id="SVGID_3_" gradientUnits="userSpaceOnUse" x1="54.4976" y1="101.3271" x2="40.4725" y2="115.3522">
		<stop  offset="0" style="stop-color:#00D4D1"/>
		<stop  offset="1" style="stop-color:#54B0FF"/>
	</linearGradient>
	<polygon fill="url(#SVGID_3_)" points="46,93.938 49,95.829 49,122.708 46,120.88 	"/>
</g>
</svg>
