<?xml version="1.0" encoding="utf-8"?>
<!-- Generator: Adobe Illustrator 21.0.0, SVG Export Plug-In . SVG Version: 6.00 Build 0)  -->
<svg version="1.1" id="图层_1" xmlns="http://www.w3.org/2000/svg" xmlns:xlink="http://www.w3.org/1999/xlink" x="0px" y="0px"
	 viewBox="0 0 200 200" style="enable-background:new 0 0 200 200;" xml:space="preserve">
<style type="text/css">
	.st0{fill:#FFFFFF;}
</style>
<path class="st0" d="M99.2,168.4c-5.9,0-10.6-4.8-10.6-10.6c0-5.8,4.7-10.6,10.6-10.6c5.9,0,10.6,4.8,10.6,10.6
	C109.8,163.6,105,168.4,99.2,168.4z"/>
<path class="st0" d="M119.9,110.8c-11.1,7-10.1,19-10.1,19v1.3c0,7.1-5.6,9.2-10.6,9.2c-5.9,0-10.6-4.7-10.6-10.5l0-2.1
	c-0.2-12.9,4.3-21.1,17.3-30.2c11.7-7.8,17.3-16.6,17.3-27.6c0-7.1-8.4-16.8-20.1-16.8c-15,0-26.1,7.5-26.1,21.5
	c0,0.1,0.1,0.2,0.1,0.3c0,5.8-4.8,10.6-10.6,10.6c-5.9,0-10.6-4.8-10.6-10.6c0-27.3,20.5-42.3,47.7-42.3c24.4,0,41.7,15.9,41.6,37.9
	C145.1,83.4,136.7,100.2,119.9,110.8z"/>
</svg>
