<?xml version="1.0" encoding="utf-8"?>
<!-- Generator: Adobe Illustrator 16.0.0, SVG Export Plug-In . SVG Version: 6.00 Build 0)  -->
<!DOCTYPE svg PUBLIC "-//W3C//DTD SVG 1.1//EN" "http://www.w3.org/Graphics/SVG/1.1/DTD/svg11.dtd">
<svg version="1.1" id="图层_1" xmlns="http://www.w3.org/2000/svg" xmlns:xlink="http://www.w3.org/1999/xlink" x="0px" y="0px"
	 width="150px" height="26px" viewBox="0 0 480 82.895" enable-background="new 0 0 480 82.895" xml:space="preserve">
<g>
	<path fill="#353535" d="M323.5,7.948V27.41c-4-3.613-7.479-5.441-12.654-5.441c-5.99,0-10.744,2.148-14.904,6.384
		c-4.154,4.229-6.067,9.396-6.067,15.354c0,5.955,2.181,11.13,6.283,15.383c4.112,4.264,8.431,6.426,14.278,6.426
		c5.111,0,9.064-1.892,13.064-5.628v5.062h8v-57L323.5,7.948L323.5,7.948z M311.732,57.968c-3.781,0-6.937-1.382-9.644-4.226
		c-2.722-2.856-4.045-6.104-4.045-9.932s1.289-7.063,3.94-9.899c2.638-2.814,5.837-4.185,9.781-4.185
		c3.95,0,7.128,1.324,9.718,4.045c2.601,2.736,3.863,6.068,3.863,10.185c0,4.096-1.358,7.38-4.151,10.039
		C318.387,56.669,315.292,57.968,311.732,57.968z"/>
	<path fill="#353535" d="M230.5,21.948v5.465c-4-3.561-7.857-5.36-12.903-5.36c-5.787,0-10.552,2.069-14.759,6.15
		c-4.218,4.093-6.18,9.098-6.129,14.855c-0.051,5.529,2.023,10.396,6.014,14.462c3.994,4.068,9.057,6.131,14.973,6.131
		c2.953,0,5.863-0.583,8.611-1.732c1.974-0.825,3.77-1.932,5.343-3.3c-0.139,2.77-0.565,4.891-1.28,6.321
		c-0.855,1.711-2.372,3.109-4.511,4.157c-2.203,1.079-4.743,1.626-7.552,1.626c-6.145,0-10.403-2.426-13.021-7.119L205,62.948
		h-8.393l0.539,1.511c3.558,9.021,10.75,13.665,21.378,13.665c3.123,0,6.032-0.432,8.648-1.354c2.645-0.933,4.946-2.309,6.841-4.127
		c1.902-1.827,2.751-4.081,3.689-6.715c0.935-2.628,0.797-6.496,0.797-11.846V21.948H230.5z M231.925,43.068
		c0,3.832-1.231,6.884-3.763,9.324c-2.541,2.452-5.741,3.646-9.781,3.646c-4.039,0-7.249-1.215-9.814-3.713
		c-2.559-2.49-3.802-5.447-3.802-9.039c0-3.602,1.308-6.681,3.997-9.416c2.685-2.729,5.926-4.058,9.906-4.058
		c3.748,0,6.828,1.228,9.419,3.748C230.67,36.076,231.925,39.187,231.925,43.068z"/>
	<path fill="#353535" d="M170.299,25.896c-4.361-3.003-8.094-4.011-12.751-4.011c-5.987,0-11.141,2.147-15.302,6.384
		c-4.155,4.23-6.267,9.383-6.267,15.316c0,5.929,2.091,11.104,6.218,15.382c4.137,4.288,8.954,6.462,14.777,6.462
		c5.092,0,9.525-1.891,13.525-5.627v5.146h8c0,0,0-21.403,0-23.676c0-4.125-2.213-8.829-3.119-10.104
		c-0.771-1.179-2.105-2.644-2.916-3.396C171.598,26.97,170.732,26.195,170.299,25.896z M157.639,57.885
		c-3.783,0-6.938-1.372-9.646-4.192c-2.719-2.832-4.042-6.08-4.042-9.928c0-3.851,1.3-7.1,3.975-9.934
		c2.66-2.816,5.825-4.188,9.677-4.188c3.857,0,7.026,1.326,9.688,4.055c2.668,2.735,3.965,6.041,3.965,10.103
		c0,4.058-1.318,7.347-4.027,10.057C164.519,56.568,161.382,57.885,157.639,57.885z"/>
	<path fill="#353535" d="M370.799,25.896c-4.36-3.003-8.094-4.011-12.751-4.011c-5.987,0-11.142,2.147-15.302,6.384
		c-4.155,4.23-6.268,9.383-6.268,15.316c0,5.929,2.092,11.104,6.219,15.382c4.138,4.288,8.704,6.462,14.526,6.462
		c5.093,0,9.275-1.891,13.275-5.627v5.146h8c0,0,0-21.403,0-23.676c0-4.125-1.963-8.829-2.869-10.104
		c-0.771-1.179-1.979-2.644-2.791-3.396C371.973,26.97,371.232,26.195,370.799,25.896z M358.139,57.885
		c-3.782,0-6.938-1.372-9.646-4.192c-2.719-2.832-4.041-6.08-4.041-9.928c0-3.851,1.301-7.1,3.975-9.934
		c2.66-2.816,5.826-4.188,9.679-4.188c3.856,0,7.025,1.326,9.688,4.055c2.668,2.735,3.965,6.041,3.965,10.103
		c0,4.058-1.317,7.347-4.026,10.057C365.019,56.568,361.882,57.885,358.139,57.885z"/>
	<path fill="#353535" d="M440.799,25.896c-4.36-3.003-8.094-4.011-12.751-4.011c-5.987,0-11.142,2.147-15.302,6.384
		c-4.155,4.23-6.268,9.383-6.268,15.316c0,5.929,2.092,11.104,6.219,15.382c4.138,4.288,8.704,6.462,14.526,6.462
		c5.093,0,9.275-1.891,13.275-5.627v5.146h8c0,0,0-21.403,0-23.676c0-4.125-1.963-8.829-2.869-10.104
		c-0.771-1.179-1.979-2.644-2.791-3.396C441.973,26.97,441.232,26.195,440.799,25.896z M428.139,57.885
		c-3.782,0-6.938-1.372-9.646-4.192c-2.719-2.832-4.041-6.08-4.041-9.928c0-3.851,1.301-7.1,3.975-9.934
		c2.66-2.816,5.826-4.188,9.679-4.188c3.856,0,7.025,1.326,9.688,4.055c2.668,2.735,3.965,6.041,3.965,10.103
		c0,4.058-1.317,7.347-4.026,10.057C435.019,56.568,431.882,57.885,428.139,57.885z"/>
	<path fill="#45A8E0" d="M188.027,8.196c1.296,0,2.387,0.444,3.275,1.332c0.889,0.89,1.332,1.97,1.332,3.239
		c0,1.273-0.443,2.354-1.332,3.24c-0.889,0.889-1.969,1.332-3.24,1.332s-2.352-0.455-3.239-1.367
		c-0.889-0.912-1.332-1.979-1.332-3.205c0-1.224,0.443-2.291,1.332-3.203C185.711,8.652,186.778,8.196,188.027,8.196z"/>
	<rect x="185.075" y="23.064" fill="#353535" width="5.976" height="41.248"/>
	<rect x="184.075" y="22.038" fill="#353535" width="7.976" height="43.298"/>
	<rect x="186.075" y="24.089" fill="#353535" width="3.976" height="39.197"/>
	<path fill="#45A8E0" d="M188.062,18.339c-1.546,0-2.877-0.562-3.956-1.67c-1.071-1.101-1.615-2.412-1.615-3.902
		c0-1.488,0.544-2.801,1.616-3.9c1.079-1.108,2.398-1.671,3.92-1.671c1.563,0,2.903,0.547,3.982,1.624
		c1.079,1.08,1.625,2.408,1.625,3.947c0,1.541-0.547,2.869-1.625,3.947C190.931,17.792,189.604,18.339,188.062,18.339z"/>
	<path fill="#45A8E0" d="M188.027,9.196c-0.976,0-1.789,0.35-2.488,1.065c-0.705,0.725-1.048,1.545-1.048,2.506
		c0,0.964,0.343,1.783,1.048,2.506c0.699,0.72,1.523,1.066,2.523,1.066c1.006,0,1.834-0.34,2.533-1.039
		c0.699-0.699,1.039-1.527,1.039-2.533c0-1.004-0.34-1.832-1.039-2.533C189.896,9.535,189.056,9.196,188.027,9.196z"/>
	<path fill="#353535" d="M279.783,28.308c-4.137-4.262-9.235-6.423-15.152-6.423c-5.966,0-11.089,2.161-15.227,6.423
		c-4.129,4.255-6.223,9.433-6.223,15.385c0,5.955,2.082,11.119,6.187,15.35c4.112,4.239,9.247,6.388,15.263,6.388
		s11.139-2.149,15.227-6.39c4.08-4.229,6.148-9.395,6.148-15.348C286.006,37.74,283.912,32.563,279.783,28.308z M264.631,57.741
		c-3.879,0-7.01-1.312-9.572-4.011c-2.576-2.712-3.828-5.926-3.828-9.821c0-3.9,1.301-7.174,3.976-10.007
		c2.659-2.815,5.729-4.187,9.39-4.187c3.659,0,6.743,1.37,9.428,4.189c2.697,2.834,4.009,6.094,4.009,9.966
		c0,3.871-1.286,7.082-3.931,9.817C271.465,56.415,268.367,57.741,264.631,57.741z"/>
	<path fill="#353535" d="M404.5,29.948v-7h-11v-15h-8v15.388l0,0v7l0,0V52.67c0,2.709,0.348,7.854,1.375,9.666
		c1.312,2.312,4.428,3,7,3c1.254,0,5.723-0.104,8.066-0.496l0.559-0.14v-7.752h-5.625c-3.125,0-3.375-1.702-3.375-3.612V29.948
		H404.5z"/>
</g>
<g>
	<polygon fill="#353535" points="72.037,37.039 76.458,44.993 80.877,52.948 72.037,52.948 63.198,52.948 67.618,44.993 	"/>
	<polygon fill="#F8D14A" points="79.466,27.256 72.63,15.417 65.793,27.257 72.629,39.098 	"/>
	<polygon fill="none" points="66.3,49.948 78.958,49.948 72.629,38.986 	"/>
	<polygon fill="#F04D98" points="66.3,49.948 59.465,61.948 85.794,61.948 78.958,49.948 	"/>
	<polygon fill="#BC2076" points="76.59,49.948 83.427,61.948 97.099,61.948 90.263,49.948 	"/>
	<path fill="#F04D98" d="M42.437,49.948c-3.106,0-5.937,2.63-5.937,5.735v0.592c0,3.105,2.83,5.673,5.937,5.673h3.356l6.836-12
		H42.437z"/>
	<path fill="#F04D98" d="M102.23,49.948h-9.6l6.836,12h2.764c3.106,0,5.27-2.566,5.27-5.673v-0.592
		C107.5,52.577,105.337,49.948,102.23,49.948z"/>
	<path fill="#F8D14A" d="M44.857,63.542c-1.553,2.69-0.631,6.118,2.058,7.671l0.513,0.289c2.689,1.554,6.13,0.654,7.683-2.036
		l4.354-7.519H45.792L44.857,63.542z"/>
	<polygon fill="#D1A424" points="51.306,52.948 44.805,64.009 58.421,64.164 64.848,52.948 	"/>
	<polygon fill="#F04D98" points="52.628,49.948 45.792,61.948 59.465,61.948 66.3,49.948 	"/>
	<path fill="#45A8E0" d="M90.147,69.462c1.553,2.69,4.994,3.601,7.681,2.048l0.514-0.302c2.69-1.555,3.612-4.973,2.059-7.662
		l-0.935-1.599H85.794L90.147,69.462z"/>
	<polygon fill="#45A8E0" points="78.958,49.948 85.794,61.948 99.467,61.948 92.631,49.948 	"/>
	<path fill="#F8D14A" d="M64.218,32.248c0-1.847,0.6-3.549,1.606-4.938l-0.031-0.108L52.628,49.948H66.3l5.441-9.368
		C67.512,40.122,64.218,36.6,64.218,32.248z"/>
	<path fill="#45A8E0" d="M79.466,27.256l-0.009,0.017c0.026,0.036,0.055,0.072,0.082,0.109L79.466,27.256z"/>
	<path fill="#F8D14A" d="M79.457,27.273c-1.536-2.095-4.007-3.461-6.803-3.461c-2.812,0-5.296,1.382-6.83,3.498l6.805,11.788
		L79.457,27.273z"/>
	<path fill="#F8D14A" d="M65.824,27.31c-1.006,1.39-1.606,3.092-1.606,4.938c0,4.352,3.294,7.932,7.523,8.388l0.888-1.538
		L65.824,27.31z"/>
	<path fill="#45A8E0" d="M80.308,28.66l-0.77-1.307c-0.026-0.037-0.055-0.06-0.082-0.097L72.629,39.09l0.892,1.493l5.438,9.364
		h13.672L80.308,28.66z"/>
	<path fill="#2A8EBA" d="M80.659,29.338l-1.121-1.956c-0.026-0.037-0.055-0.073-0.082-0.109l-6.827,11.825l1.24,2.137L80.659,29.338
		z"/>
	<path fill="#F8D14A" d="M85.009,17.656c1.553-2.69,0.63-6.13-2.06-7.683l-0.512-0.296c-2.69-1.554-6.13-0.631-7.683,2.059
		l-2.125,3.682l6.835,11.84L85.009,17.656z"/>
	<path fill="#45A8E0" d="M70.505,11.737c-1.554-2.69-4.995-3.61-7.685-2.059l-0.512,0.295c-2.69,1.554-3.611,4.993-2.058,7.685
		l5.543,9.6l6.837-11.84L70.505,11.737z"/>
</g>
</svg>
